<?xml version="1.0" encoding="UTF-8" standalone="no"?>
<svg
   xmlns:dc="http://purl.org/dc/elements/1.1/"
   xmlns:cc="http://creativecommons.org/ns#"
   xmlns:rdf="http://www.w3.org/1999/02/22-rdf-syntax-ns#"
   xmlns:svg="http://www.w3.org/2000/svg"
   xmlns="http://www.w3.org/2000/svg"
   viewBox="0 0 1237.2 530.61334"
   height="530.61334"
   width="1237.2"
   xml:space="preserve"
   id="svg2"
   version="1.1"><metadata
     id="metadata8"><rdf:RDF><cc:Work
         rdf:about=""><dc:format>image/svg+xml</dc:format><dc:type
           rdf:resource="http://purl.org/dc/dcmitype/StillImage" /></cc:Work></rdf:RDF></metadata><defs
     id="defs6" /><g
     transform="matrix(1.3333333,0,0,-1.3333333,0,530.61333)"
     id="g10"><g
       transform="scale(0.1)"
       id="g12"><path
         id="path14"
         style="fill:#a18e6a;fill-opacity:1;fill-rule:nonzero;stroke:none"
         d="m 4593.49,3376.51 1.82,290.87 -186.54,-145.93 -111.65,166.19 383.48,291.93 381.6,-290.61 -112.05,-167.13 -186.54,145.74 1.83,-290.96 -171.95,-0.1" /><path
         id="path16"
         style="fill:#a18e6a;fill-opacity:1;fill-rule:nonzero;stroke:none"
         d="m 4544.76,2698.19 -172.21,-234.43 236.41,-2.84 -6.03,-208.7 -482.76,1.49 -153.98,458.61 204.48,75.72 65.5,-226.57 169.31,237.11 139.28,-100.39" /><path
         id="path18"
         style="fill:#a18e6a;fill-opacity:1;fill-rule:nonzero;stroke:none"
         d="m 4974.2,3213.49 276.94,88.97 -196.84,131.74 127.21,163.55 391.01,-277.59 -148.65,-455.85 -192.65,59.54 72.58,218.77 -275.88,-92.48 -53.72,163.35" /><path
         id="path20"
         style="fill:#a18e6a;fill-opacity:1;fill-rule:nonzero;stroke:none"
         d="m 4954.86,2785.47 168.69,-236.97 63.77,220.09 189.91,-65.61 -132.83,-457.82 -479.02,7.06 v 206.61 l 229.18,-9.01 -175.4,234.95 135.7,100.7" /><path
         id="path22"
         style="fill:#a18e6a;fill-opacity:1;fill-rule:nonzero;stroke:none"
         d="m 4316.4,3048.5 -275.35,93.76 79.42,-223.14 -195.46,-53.32 -152.47,453.94 390.16,276.53 128.69,-163.45 -197.28,-130.85 276.6,-90.33 -54.31,-163.14" /><path
         id="path24"
         style="fill:#a18e6a;fill-opacity:1;fill-rule:nonzero;stroke:none"
         d="m 4954.66,3028.09 c 0,-151.87 -123.12,-274.99 -275,-274.99 -151.87,0 -274.99,123.12 -274.99,274.99 0,151.87 123.12,275 274.99,275 151.88,0 275,-123.13 275,-275" /><path
         id="path26"
         style="fill:#192947;fill-opacity:1;fill-rule:nonzero;stroke:none"
         d="m 445.973,1049.35 c 0,-58.491 0.191,-110.702 0.605,-156.58 0.399,-45.899 2.231,-81.848 5.488,-107.84 1.618,-17.879 5.274,-32.899 10.965,-45.09 5.676,-12.168 17.86,-19.488 36.555,-21.93 8.93,-1.629 18.891,-2.851 29.852,-3.648 10.968,-0.821 19.289,-1.223 24.984,-1.223 6.492,0 9.75,-2.437 9.75,-7.32 0,-6.477 -6.516,-9.731 -19.496,-9.731 -17.063,0 -34.121,0.203 -51.184,0.59 -17.058,0.434 -32.707,0.82 -46.914,1.231 -14.219,0.41 -26,0.82 -35.332,1.211 -9.348,0.421 -14.836,0.621 -16.449,0.621 -1.637,0 -7.125,-0.2 -16.449,-0.621 -9.352,-0.391 -20.11,-0.801 -32.293,-1.211 -12.184,-0.411 -24.789,-0.797 -37.774,-1.231 -13.004,-0.387 -23.968,-0.59 -32.898,-0.59 -13.004,0 -19.492,3.254 -19.492,9.731 0,4.883 3.238,7.32 9.742,7.32 5.676,0 11.769,0.402 18.277,1.223 6.496,0.797 12.59,2.019 18.278,3.648 12.187,2.442 20.507,9.762 24.98,21.93 4.453,12.191 7.922,27.211 10.363,45.09 3.231,25.992 5.063,61.941 5.477,107.84 0.402,45.878 0.609,98.089 0.609,156.58 v 515.42 l -180.336,-2.44 c -18.695,0 -34.73,-0.82 -48.129,-2.44 -13.402,-1.64 -24.9801,-3.85 -34.7301,-6.7 -9.7461,-2.85 -17.8789,-6.7 -24.3711,-11.58 -6.5078,-4.87 -12.1836,-10.96 -17.0625,-18.27 -6.5039,-10.57 -11.1719,-18.49 -14.0078,-23.76 -2.8555,-5.29 -5.0821,-9.95 -6.7032,-14.01 -3.2539,-8.13 -7.3085,-12.19 -12.18355,-12.19 -4.07812,0 -6.09375,3.65 -6.09375,10.97 0,3.24 1.21484,11.16 3.65625,23.76 2.4375,12.58 5.27344,26.2 8.53125,40.82 3.2383,14.62 6.2852,28.02 9.1406,40.21 2.836,12.18 4.6641,19.49 5.4805,21.93 1.6211,4.06 3.4453,8.93 5.4805,14.63 2.0234,5.67 4.2656,8.53 6.6992,8.53 4.0586,0 9.9414,-2.04 17.6719,-6.11 7.7109,-4.06 19.6875,-6.9 35.9492,-8.52 17.8596,-1.64 36.5546,-3.04 56.0546,-4.27 19.492,-1.21 32.895,-1.82 40.203,-1.82 h 456.942 c 19.492,0 36.343,0.61 50.562,1.82 14.207,1.23 26.199,2.63 35.949,4.27 8.926,1.62 16.239,3.05 21.934,4.27 5.668,1.22 9.746,1.83 12.184,1.83 3.238,0 5.062,-1.43 5.484,-4.27 0.398,-2.86 0.609,-6.3 0.609,-10.36 0,-8.95 -0.211,-20.32 -0.609,-34.12 -0.422,-13.82 -0.824,-27.61 -1.223,-41.42 -0.414,-13.83 -0.816,-26.2 -1.215,-37.17 -0.421,-10.97 -0.605,-18.09 -0.605,-21.33 0,-10.56 -2.859,-15.84 -8.535,-15.84 -3.258,0 -5.481,1.22 -6.699,3.66 -1.223,2.44 -2.247,8.12 -3.047,17.05 l -1.215,13.42 c -0.824,8.92 -3.66,17.45 -8.535,25.58 -4.871,8.11 -12.793,15.02 -23.758,20.71 -10.965,5.68 -26.012,10.37 -45.086,14.01 -19.098,3.67 -43.258,5.89 -72.5,6.71 l -153.531,2.44 v -515.42" /><path
         id="path28"
         style="fill:#192947;fill-opacity:1;fill-rule:nonzero;stroke:none"
         d="m 1654.72,996.941 c 0,-50.382 0.39,-95.031 1.21,-134.019 0.8,-38.992 2.44,-69.051 4.88,-90.184 1.62,-15.437 4.45,-27.828 8.53,-37.156 4.05,-9.352 14.2,-15.23 30.46,-17.672 7.32,-1.629 16.03,-2.851 26.2,-3.648 10.15,-0.821 17.25,-1.223 21.33,-1.223 6.48,0 9.74,-2.848 9.74,-8.527 0,-5.672 -6.09,-8.524 -18.28,-8.524 -14.62,0 -29.45,0.203 -44.47,0.59 -15.04,0.434 -28.85,0.82 -41.43,1.231 -12.61,0.41 -23.15,0.82 -31.68,1.211 -8.53,0.421 -13.62,0.621 -15.23,0.621 -1.64,0 -6.52,-0.2 -14.63,-0.621 -8.13,-0.391 -17.67,-0.801 -28.63,-1.211 -10.97,-0.411 -22.14,-0.797 -33.51,-1.231 -11.38,-0.387 -21.13,-0.59 -29.24,-0.59 -11.39,0 -17.06,2.852 -17.06,8.524 0,5.679 2.83,8.527 8.53,8.527 4.87,0 10.15,0.402 15.84,1.223 5.67,0.797 10.97,2.019 15.84,3.648 11.36,2.442 18.67,8.531 21.93,18.281 3.24,9.75 5.67,22.34 7.31,37.77 2.44,21.121 3.85,50.57 4.27,88.34 0.4,37.781 0.61,81.84 0.61,132.211 v 103.578 c 0,4.05 -2.04,6.08 -6.1,6.08 h -447.18 c -4.08,0 -6.1,-2.03 -6.1,-6.08 V 994.512 c 0,-50.371 0.19,-94.653 0.61,-132.821 0.4,-38.179 1.83,-67.82 4.27,-88.953 1.62,-15.437 4.45,-27.828 8.53,-37.156 4.05,-9.352 14.19,-15.23 30.46,-17.672 8.11,-1.629 17.06,-2.851 26.81,-3.648 9.75,-0.821 17.05,-1.223 21.93,-1.223 5.67,0 8.53,-2.848 8.53,-8.527 0,-5.672 -5.69,-8.524 -17.07,-8.524 -14.61,0 -29.65,0.203 -45.07,0.59 -15.44,0.434 -29.46,0.82 -42.04,1.231 -12.61,0.41 -23.15,0.82 -31.68,1.211 -8.53,0.421 -13.22,0.621 -14.02,0.621 -1.63,0 -6.51,-0.2 -14.62,-0.621 -8.13,-0.391 -17.67,-0.801 -28.63,-1.211 -10.972,-0.411 -22.358,-0.797 -34.12,-1.231 -11.789,-0.387 -21.742,-0.59 -29.855,-0.59 -11.387,0 -17.059,2.852 -17.059,8.524 0,5.679 2.836,8.527 8.527,8.527 4.875,0 10.364,0.402 16.453,1.223 6.094,0.797 11.571,2.019 16.45,3.648 10.547,2.442 17.246,8.32 20.101,17.672 2.836,9.328 5.485,21.719 7.922,37.156 3.234,21.133 5.066,51.192 5.488,90.184 0.403,38.988 0.603,83.637 0.603,134.019 v 182.779 c 0,39.79 0,72.29 0,97.49 0,25.16 0,45.49 0,60.91 0,16.25 -0.2,29.04 -0.603,38.38 -0.422,9.34 -1.031,18.08 -1.832,26.21 -1.64,17.86 -4.879,31.26 -9.746,40.21 -4.879,8.93 -16.261,14.62 -34.121,17.06 -4.07,0.8 -9.961,1.41 -17.668,1.83 -7.73,0.4 -14.012,0.6 -18.89,0.6 -5.688,0 -8.524,2.84 -8.524,8.54 0,5.67 5.672,8.52 17.059,8.52 12.183,0 25.172,-0.2 38.992,-0.6 13.801,-0.42 26.387,-0.62 37.773,-0.62 12.18,0 22.54,-0.2 31.07,-0.6 8.53,-0.42 13.6,-0.62 15.23,-0.62 0.8,0 5.28,0.2 13.41,0.62 8.11,0.4 17.46,0.6 28.02,0.6 11.37,0 22.95,0.2 34.73,0.62 11.76,0.4 21.72,0.6 29.85,0.6 11.36,0 17.06,-2.85 17.06,-8.52 0,-5.7 -2.86,-8.54 -8.53,-8.54 -4.07,0 -8.13,0 -12.18,0 -3.26,0 -8.13,-0.81 -14.62,-2.43 -14.63,-3.26 -24.18,-8.95 -28.64,-17.06 -4.47,-8.13 -7.52,-21.53 -9.14,-40.21 0,-8.13 -0.21,-16.87 -0.61,-26.21 -0.42,-9.34 -0.61,-22.13 -0.61,-38.38 0,-16.25 0,-37.37 0,-63.35 0,-25.2 0,-57.69 0,-97.48 v -21.94 c 0,-4.07 2.02,-6.08 6.1,-6.08 h 447.18 c 4.06,0 6.1,2.01 6.1,6.08 v 21.94 c 0,39.79 0,72.28 0,97.48 0,25.98 -0.21,47.1 -0.61,63.35 -0.42,16.25 -0.82,29.04 -1.22,38.38 -0.42,9.34 -0.61,18.08 -0.61,26.21 -1.64,17.86 -4.68,31.26 -9.14,40.21 -4.47,8.93 -15.65,14.62 -33.51,17.06 -4.07,0.8 -9.96,1.41 -17.67,1.83 -7.73,0.4 -14.01,0.6 -18.88,0.6 -5.7,0 -8.53,2.84 -8.53,8.54 0,5.67 5.67,8.52 17.05,8.52 12.19,0 24.99,-0.2 38.39,-0.6 13.4,-0.42 26.2,-0.62 38.38,-0.62 12.19,0 22.33,-0.2 30.46,-0.6 8.11,-0.42 12.99,-0.62 14.63,-0.62 1.61,0 6.49,0.2 14.62,0.62 8.11,0.4 17.46,0.6 28.02,0.6 11.37,0 22.74,0.2 34.12,0.62 11.37,0.4 21.12,0.6 29.24,0.6 12.19,0 18.28,-2.85 18.28,-8.52 0,-5.7 -3.25,-8.54 -9.75,-8.54 -4.07,0 -8.13,0 -12.18,0 -3.26,0 -8.13,-0.81 -14.62,-2.43 -13.83,-3.26 -22.96,-8.95 -27.42,-17.06 -4.47,-8.13 -7.52,-21.53 -9.14,-40.21 -0.82,-8.13 -1.43,-16.87 -1.83,-26.21 -0.41,-9.34 -0.6,-22.13 -0.6,-38.38 0,-15.42 0,-35.75 0,-60.91 0,-25.2 0,-57.7 0,-97.49 V 996.941" /><path
         id="path30"
         style="fill:#192947;fill-opacity:1;fill-rule:nonzero;stroke:none"
         d="m 2032.43,1179.72 c 0,39.79 0,72.29 0,97.49 0,25.16 0,45.49 0,60.91 0,16.25 -0.2,29.04 -0.6,38.38 -0.42,9.34 -1.03,18.08 -1.83,26.21 -1.64,17.86 -4.88,31.26 -9.75,40.21 -4.87,8.93 -16.26,14.62 -34.12,17.06 -4.07,0.8 -9.96,1.41 -17.67,1.83 -7.73,0.4 -14.01,0.6 -18.88,0.6 -5.7,0 -8.53,2.84 -8.53,8.54 0,5.67 5.67,8.52 17.06,8.52 12.18,0 25.17,-0.2 38.99,-0.6 13.8,-0.42 26.8,-0.62 38.99,-0.62 12.18,0 22.54,-0.2 31.07,-0.6 8.53,-0.42 13.59,-0.62 15.23,-0.62 0.8,0 7.31,0 19.5,0 12.18,0 26.81,0 43.86,0 17.86,0 36.96,0 57.27,0 21.12,0 41.01,0 59.71,0 18.68,0 34.92,0 48.74,0 13.8,0 22.74,0 26.81,0 10.54,0.8 20.3,1.84 29.24,3.05 8.93,1.23 15.43,2.23 19.5,3.05 2.43,0.81 4.87,1.83 7.31,3.05 2.44,1.21 4.88,1.83 7.31,1.83 3.23,0 4.87,-3.26 4.87,-9.76 0,-4.07 -1.03,-9.56 -3.04,-16.44 -2.04,-6.92 -3.86,-17.67 -5.49,-32.3 0,-2.43 -0.21,-6.7 -0.61,-12.79 -0.42,-6.1 -1.02,-12.79 -1.82,-20.1 -0.82,-7.31 -1.43,-14.23 -1.83,-20.71 -0.42,-6.52 -1.03,-11.39 -1.83,-14.63 -0.82,-2.44 -2.04,-4.87 -3.66,-7.32 -1.63,-2.43 -3.65,-3.65 -6.09,-3.65 -5.69,0 -8.53,4.46 -8.53,13.41 0,4.05 -0.42,9.53 -1.22,16.45 -0.81,6.89 -2.43,13.59 -4.87,20.1 -1.64,4.06 -3.86,7.71 -6.7,10.97 -2.86,3.23 -7.12,6.09 -12.8,8.54 -5.69,2.42 -13,4.65 -21.93,6.69 -8.95,2.02 -20.71,3.84 -35.34,5.48 -4.87,0.8 -15.04,1.41 -30.46,1.83 -15.44,0.4 -31.89,0.8 -49.35,1.22 -17.47,0.4 -33.51,0.62 -48.13,0.62 -14.62,0 -23.57,0 -26.8,0 -4.08,0 -6.1,-3.67 -6.1,-10.98 v -281.48 c 0,-7.31 2.02,-10.96 6.1,-10.96 3.23,0 12.98,0 29.24,0 17.06,0 35.74,0 56.05,0 20.3,0 39.39,0.19 57.27,0.61 17.86,0.4 30.04,1.01 36.56,1.83 12.98,1.62 23.55,3.05 31.67,4.27 8.12,1.22 15.03,4.66 20.72,10.36 8.93,8.91 14.2,13.4 15.85,13.4 4.05,0 6.08,-2.87 6.08,-8.53 0,-3.26 -1.02,-9.35 -3.04,-18.29 -2.04,-8.94 -3.87,-21.92 -5.48,-38.98 -1.64,-10.57 -2.86,-23.36 -3.66,-38.39 -0.82,-15.04 -1.22,-24.57 -1.22,-28.63 0,-4.08 -0.61,-8.34 -1.83,-12.8 -1.21,-4.47 -3.86,-6.7 -7.92,-6.7 -4.87,0 -7.3,3.23 -7.3,9.75 0,4.87 -0.22,10.14 -0.62,15.84 -0.42,5.67 -1.83,11.77 -4.26,18.28 -1.64,7.31 -5.9,13.81 -12.8,19.5 -6.91,5.66 -20.92,9.74 -42.03,12.18 -7.32,0.8 -19.1,1.62 -35.34,2.43 -16.26,0.8 -32.9,1.42 -49.96,1.83 -17.06,0.41 -32.9,0.61 -47.52,0.61 -14.62,0 -24.37,0 -29.24,0 -4.88,0 -7.32,-2.44 -7.32,-7.31 v -86.519 c 0,-8.941 0,-22.339 0,-40.199 0,-17.062 0,-34.933 0,-53.621 0,-18.691 0,-36.152 0,-52.391 0,-15.449 0,-25.589 0,-30.468 0.8,-17.051 2.84,-31.063 6.1,-42.032 3.23,-10.968 9.54,-19.5 18.88,-25.589 9.33,-6.09 22.12,-10.161 38.39,-12.192 16.24,-2.027 37.77,-3.039 64.58,-3.039 13.8,0 31.68,0.399 53.61,1.211 21.93,0.801 39.79,4.07 53.61,9.758 13.81,6.492 24.56,14.812 32.29,24.98 7.71,10.153 13.2,25.77 16.45,46.903 2.44,10.547 6.1,15.84 10.97,15.84 3.24,0 5.27,-1.641 6.09,-4.864 0.81,-3.258 1.22,-6.918 1.22,-10.976 0,-1.641 -0.41,-6.703 -1.22,-15.223 -0.82,-8.539 -2.04,-18.277 -3.65,-29.25 -1.64,-10.957 -3.26,-21.527 -4.88,-31.68 -1.63,-10.16 -3.25,-18.078 -4.87,-23.757 -1.63,-6.512 -3.87,-11.582 -6.7,-15.223 -2.85,-3.668 -6.31,-6.289 -10.36,-7.93 -4.07,-1.617 -9.55,-2.629 -16.45,-3.051 -6.91,-0.398 -15.65,-0.609 -26.2,-0.609 -40.63,0 -76.36,0.422 -107.22,1.223 -30.89,0.82 -57.27,1.636 -79.21,2.437 -22.75,1.641 -41.43,2.442 -56.05,2.442 -13.82,0 -24.79,0 -32.9,0 -1.64,0 -6.91,0 -15.84,0 -8.95,0 -19.09,-0.399 -30.46,-1.219 -10.57,-0.801 -21.33,-1.41 -32.29,-1.844 -10.97,-0.387 -20.92,-0.59 -29.85,-0.59 -11.39,0 -17.06,2.852 -17.06,8.524 0,5.679 2.83,8.527 8.53,8.527 4.87,0 10.36,0.609 16.45,1.82 6.09,1.223 11.57,2.231 16.45,3.051 10.54,1.621 17.24,7.309 20.1,17.07 2.84,9.739 5.48,22.321 7.92,37.758 3.24,21.133 5.07,51.192 5.49,90.184 0.4,38.988 0.6,83.637 0.6,134.019 v 182.779" /><path
         id="path32"
         style="fill:#192947;fill-opacity:1;fill-rule:nonzero;stroke:none"
         d="m 3305.15,711.832 c -63.79,21.918 -120.03,54.816 -168.77,98.699 -29.24,26.789 -53.42,55.219 -72.5,85.278 -19.1,30.05 -34.12,60.511 -45.08,91.39 -10.97,30.871 -18.7,61.931 -23.15,93.221 -4.48,31.26 -6.7,61.53 -6.7,90.77 0,20.3 2.01,44.06 6.09,71.29 4.05,27.21 11.15,55.63 21.32,85.29 10.14,29.64 24.16,59.71 42.03,90.17 17.87,30.46 40.22,59.09 67.03,85.91 17.86,17.85 38.57,34.91 62.13,51.17 23.56,16.24 50.37,30.05 80.43,41.43 30.04,11.36 63.97,20.5 101.74,27.42 37.78,6.89 80.22,10.36 127.34,10.36 24.37,0 52.39,-1.03 84.07,-3.06 31.68,-2.03 62.55,-5.9 92.61,-11.57 23.55,-4.07 45.27,-7.73 65.19,-10.97 19.89,-3.25 39.6,-5.69 59.1,-7.31 6.49,-0.81 10.76,-2.24 12.79,-4.26 2.02,-2.03 3.04,-5.09 3.04,-9.14 0,-4.87 -0.6,-11.99 -1.82,-21.33 -1.22,-9.34 -2.64,-24.98 -4.27,-46.9 -0.81,-9.76 -1.43,-20.93 -1.83,-33.51 -0.41,-12.61 -0.6,-24.99 -0.6,-37.17 0,-12.18 -0.21,-23.15 -0.61,-32.9 -0.42,-9.75 -0.61,-17.05 -0.61,-21.93 -0.82,-17.06 -4.48,-25.59 -10.97,-25.59 -6.51,0 -9.75,8.53 -9.75,25.59 0,23.55 -4.47,46.7 -13.4,69.45 -8.95,22.74 -21.53,41.02 -37.77,54.84 -21.14,18.68 -53.62,34.91 -97.48,48.74 -43.87,13.81 -92.61,20.71 -146.22,20.71 -40.63,0 -75.97,-2.65 -106.01,-7.91 -30.06,-5.3 -56.26,-12.2 -78.59,-20.72 -22.36,-8.54 -41.24,-18.09 -56.67,-28.64 -15.44,-10.57 -28.44,-21.13 -38.99,-31.68 -44.68,-43.06 -74.13,-91.2 -88.34,-144.39 -14.22,-53.21 -21.32,-111.09 -21.32,-173.63 0,-58.5 10.76,-114.54 32.29,-168.17 21.51,-53.6 51.58,-100.928 90.17,-141.948 38.57,-41.031 84.87,-73.934 138.91,-98.703 54.01,-24.789 113.51,-37.149 178.51,-37.149 46.3,0 87.12,3.84 122.46,11.571 35.33,7.711 65.18,24.16 89.56,49.347 12.98,13.813 23.34,31.473 31.07,53.012 7.71,21.512 12.37,37.961 14.01,49.34 2.44,12.191 6.49,18.27 12.18,18.27 3.24,0 5.49,-1.821 6.71,-5.481 1.21,-3.66 1.82,-7.918 1.82,-12.789 0,-2.441 -0.82,-9.961 -2.44,-22.551 -1.63,-12.59 -3.64,-27.008 -6.09,-43.25 -2.43,-16.258 -5.29,-32.699 -8.53,-49.34 -3.25,-16.668 -6.51,-30.281 -9.74,-40.828 -4.07,-11.383 -7.52,-18.883 -10.36,-22.543 -2.85,-3.656 -9.95,-7.906 -21.33,-12.797 -12.18,-4.871 -26.8,-9.132 -43.86,-12.793 -17.05,-3.648 -35.34,-6.476 -54.83,-8.527 -19.5,-2.019 -39.6,-3.652 -60.32,-4.883 -20.71,-1.207 -40.82,-1.816 -60.31,-1.816 -91.81,0 -169.59,10.957 -233.34,32.91" /><path
         id="path34"
         style="fill:#192947;fill-opacity:1;fill-rule:nonzero;stroke:none"
         d="m 4173.31,1091.99 c 0,-5.69 2.44,-10.16 7.32,-13.41 4.05,-2.43 10.14,-4.47 18.27,-6.09 8.11,-1.63 17.67,-3.25 28.64,-4.87 10.96,-1.63 22.54,-2.85 34.72,-3.66 12.19,-0.82 24.37,-1.22 36.56,-1.22 12.98,0 26.39,0.8 40.21,2.45 13.8,1.61 27.21,6.89 40.21,15.84 18.68,12.18 34.12,31.68 46.3,58.48 12.19,26.81 18.28,60.11 18.28,99.91 0,64.99 -16.45,115.16 -49.35,150.5 -32.9,35.33 -78.19,53 -135.86,53 -16.26,0 -31.69,-0.61 -46.3,-1.83 -14.62,-1.22 -24.79,-2.64 -30.46,-4.26 -5.7,-3.26 -8.54,-7.32 -8.54,-12.19 z m -92.6,87.73 c 0,39.79 0,72.29 0,97.49 0,25.16 0,45.49 0,60.91 0,16.25 -0.21,29.04 -0.61,38.38 -0.42,9.34 -1.03,18.08 -1.83,26.21 -1.64,17.86 -4.88,31.26 -9.74,40.21 -4.88,8.93 -16.26,14.62 -34.13,17.06 -4.07,0.8 -9.96,1.41 -17.66,1.83 -7.74,0.4 -14.01,0.6 -18.89,0.6 -5.69,0 -8.53,2.84 -8.53,8.54 0,5.67 5.68,8.52 17.06,8.52 12.19,0 25.38,-0.2 39.6,-0.6 14.21,-0.42 27.41,-0.62 39.6,-0.62 12.18,0 22.74,-0.2 31.68,-0.6 8.93,-0.42 14.21,-0.62 15.84,-0.62 2.44,0 9.33,0.2 20.72,0.62 11.37,0.4 23.95,0.6 37.77,0.6 13.8,0 27.82,0.2 42.04,0.62 14.2,0.4 25.38,0.6 33.51,0.6 34.12,0 68.84,-2.64 104.18,-7.92 35.34,-5.28 67.21,-17.66 95.65,-37.17 6.49,-4.87 14.01,-11.57 22.54,-20.09 8.54,-8.53 16.64,-18.89 24.38,-31.08 7.7,-12.18 14.2,-25.8 19.49,-40.82 5.27,-15.04 7.92,-31.49 7.92,-49.34 0,-38.2 -9.56,-76.58 -28.63,-115.16 -19.1,-38.58 -53.43,-79 -102.97,-121.24 43.87,-55.24 84.48,-105.611 121.85,-151.091 37.36,-45.5 71.47,-84.5 102.36,-116.977 28.42,-29.23 51.97,-48.133 70.67,-56.66 18.68,-8.524 34.92,-13.613 48.75,-15.223 10.54,-1.64 18.68,-2.66 24.36,-3.051 5.68,-0.429 10.16,-0.609 13.41,-0.609 6.48,0 9.74,-2.848 9.74,-8.527 0,-3.262 -1.82,-5.492 -5.47,-6.703 -3.66,-1.231 -10.36,-1.821 -20.12,-1.821 h -67.01 c -30.88,0 -54.23,1.633 -70.07,4.864 -15.84,3.226 -30.67,8.527 -44.47,15.847 -23.58,12.18 -46.12,30.86 -67.63,56.039 -21.53,25.172 -47.73,57.274 -78.59,96.262 -11.39,13.809 -22.75,28.23 -34.12,43.27 -11.39,15.019 -22.14,29.23 -32.29,42.64 -10.17,13.41 -19.5,25.781 -28.03,37.16 -8.53,11.37 -15.65,20.71 -21.32,28.03 -4.08,4.06 -8.95,6.09 -14.62,6.09 l -136.47,2.43 c -4.88,0 -7.32,-2.85 -7.32,-8.52 v -24.37 c 0,-50.378 0.2,-94.859 0.62,-133.429 0.4,-38.59 1.82,-68.43 4.26,-89.563 1.62,-15.437 5.06,-27.828 10.36,-37.156 5.27,-9.352 16.03,-15.23 32.29,-17.672 7.31,-1.629 15.84,-2.851 25.58,-3.648 9.75,-0.821 17.06,-1.223 21.94,-1.223 5.67,0 8.53,-2.848 8.53,-8.527 0,-5.672 -5.7,-8.524 -17.06,-8.524 -14.62,0 -29.45,0.203 -44.48,0.59 -15.04,0.434 -28.84,0.82 -41.42,1.231 -12.61,0.41 -23.16,0.82 -31.69,1.211 -8.53,0.421 -13.21,0.621 -14.01,0.621 -16.26,-0.801 -29.85,-1.422 -40.82,-1.832 -10.96,-0.411 -22.54,-0.797 -34.72,-1.231 -12.19,-0.387 -22.36,-0.59 -30.47,-0.59 -11.38,0 -17.06,2.852 -17.06,8.524 0,5.679 2.84,8.527 8.53,8.527 4.88,0 10.36,0.402 16.45,1.223 6.09,0.797 11.57,2.019 16.45,3.648 10.54,2.442 17.25,8.32 20.11,17.672 2.83,9.328 5.47,21.719 7.92,37.156 3.23,21.133 5.06,51.192 5.48,90.184 0.4,38.988 0.61,83.637 0.61,134.019 v 182.779" /><path
         id="path36"
         style="fill:#192947;fill-opacity:1;fill-rule:nonzero;stroke:none"
         d="m 4899.54,1179.72 c 0,39.79 0,72.29 0,97.49 0,25.16 0,45.49 0,60.91 0,16.25 -0.21,29.04 -0.61,38.38 -0.42,9.34 -1.02,18.08 -1.82,26.21 -1.65,17.86 -4.89,31.26 -9.76,40.21 -4.87,8.93 -16.25,14.62 -34.11,17.06 -4.08,0.8 -9.96,1.41 -17.67,1.83 -7.73,0.4 -14.01,0.6 -18.89,0.6 -5.7,0 -8.53,2.84 -8.53,8.54 0,5.67 5.67,8.52 17.06,8.52 12.19,0 25.18,-0.2 38.99,-0.6 13.8,-0.42 26.8,-0.62 38.99,-0.62 12.19,0 22.54,-0.2 31.08,-0.6 8.53,-0.42 13.59,-0.62 15.23,-0.62 0.81,0 7.32,0 19.5,0 12.18,0 26.81,0 43.86,0 17.86,0 36.96,0 57.27,0 21.11,0 41,0 59.71,0 18.67,0 34.92,0 48.73,0 13.8,0 22.74,0 26.81,0 10.56,0.8 20.29,1.84 29.25,3.05 8.92,1.23 15.41,2.23 19.5,3.05 2.43,0.81 4.88,1.83 7.3,3.05 2.43,1.21 4.88,1.83 7.31,1.83 3.24,0 4.87,-3.26 4.87,-9.76 0,-4.07 -1.02,-9.56 -3.05,-16.44 -2.03,-6.92 -3.86,-17.67 -5.48,-32.3 0,-2.43 -0.2,-6.7 -0.59,-12.79 -0.42,-6.1 -1.04,-12.79 -1.83,-20.1 -0.83,-7.31 -1.43,-14.23 -1.82,-20.71 -0.44,-6.52 -1.04,-11.39 -1.83,-14.63 -0.83,-2.44 -2.05,-4.87 -3.67,-7.32 -1.64,-2.43 -3.65,-3.65 -6.09,-3.65 -5.7,0 -8.52,4.46 -8.52,13.41 0,4.05 -0.43,9.53 -1.22,16.45 -0.83,6.89 -2.45,13.59 -4.88,20.1 -1.64,4.06 -3.86,7.71 -6.7,10.97 -2.87,3.23 -7.11,6.09 -12.8,8.54 -5.68,2.42 -13.01,4.65 -21.93,6.69 -8.96,2.02 -20.72,3.84 -35.33,5.48 -4.88,0.8 -15.04,1.41 -30.47,1.83 -15.44,0.4 -31.9,0.8 -49.34,1.22 -17.49,0.4 -33.52,0.62 -48.13,0.62 -14.63,0 -23.59,0 -26.83,0 -4.06,0 -6.07,-3.67 -6.07,-10.98 v -281.48 c 0,-7.31 2.01,-10.96 6.07,-10.96 3.24,0 12.99,0 29.26,0 17.05,0 35.74,0 56.05,0 20.3,0 39.38,0.19 57.26,0.61 17.86,0.4 30.05,1.01 36.55,1.83 12.99,1.62 23.56,3.05 31.68,4.27 8.12,1.22 15.03,4.66 20.73,10.36 8.92,8.91 14.19,13.4 15.83,13.4 4.07,0 6.1,-2.87 6.1,-8.53 0,-3.26 -1.04,-9.35 -3.05,-18.29 -2.03,-8.94 -3.86,-21.92 -5.48,-38.98 -1.64,-10.57 -2.86,-23.36 -3.65,-38.39 -0.83,-15.04 -1.22,-24.57 -1.22,-28.63 0,-4.08 -0.61,-8.34 -1.83,-12.8 -1.23,-4.47 -3.85,-6.7 -7.93,-6.7 -4.87,0 -7.3,3.23 -7.3,9.75 0,4.87 -0.21,10.14 -0.62,15.84 -0.42,5.67 -1.82,11.77 -4.25,18.28 -1.63,7.31 -5.91,13.81 -12.8,19.5 -6.91,5.66 -20.93,9.74 -42.04,12.18 -7.31,0.8 -19.1,1.62 -35.34,2.43 -16.25,0.8 -32.89,1.42 -49.96,1.83 -17.05,0.41 -32.88,0.61 -47.51,0.61 -14.63,0 -24.37,0 -29.25,0 -4.88,0 -7.3,-2.44 -7.3,-7.31 v -86.519 c 0,-8.941 0,-22.339 0,-40.199 0,-17.062 0,-34.933 0,-53.621 0,-18.691 0,-36.152 0,-52.391 0,-15.449 0,-25.589 0,-30.468 0.79,-17.051 2.82,-31.063 6.07,-42.032 3.24,-10.968 9.55,-19.5 18.91,-25.589 9.31,-6.09 22.11,-10.161 38.38,-12.192 16.24,-2.027 37.77,-3.039 64.58,-3.039 13.8,0 31.68,0.399 53.6,1.211 21.93,0.801 39.79,4.07 53.61,9.758 13.82,6.492 24.56,14.812 32.31,24.98 7.69,10.153 13.19,25.77 16.44,46.903 2.43,10.547 6.09,15.84 10.96,15.84 3.24,0 5.29,-1.641 6.1,-4.864 0.79,-3.258 1.22,-6.918 1.22,-10.976 0,-1.641 -0.43,-6.703 -1.22,-15.223 -0.81,-8.539 -2.04,-18.277 -3.65,-29.25 -1.64,-10.957 -3.26,-21.527 -4.88,-31.68 -1.63,-10.16 -3.25,-18.078 -4.87,-23.757 -1.65,-6.512 -3.86,-11.582 -6.7,-15.223 -2.86,-3.668 -6.31,-6.289 -10.36,-7.93 -4.08,-1.617 -9.56,-2.629 -16.45,-3.051 -6.9,-0.398 -15.65,-0.609 -26.2,-0.609 -40.64,0 -76.37,0.422 -107.24,1.223 -30.87,0.82 -57.25,1.636 -79.19,2.437 -22.75,1.641 -41.42,2.442 -56.05,2.442 -13.82,0 -24.79,0 -32.9,0 -1.64,0 -6.92,0 -15.84,0 -8.96,0 -19.1,-0.399 -30.47,-1.219 -10.57,-0.801 -21.33,-1.41 -32.29,-1.844 -10.96,-0.387 -20.92,-0.59 -29.85,-0.59 -11.39,0 -17.06,2.852 -17.06,8.524 0,5.679 2.83,8.527 8.53,8.527 4.88,0 10.37,0.609 16.45,1.82 6.09,1.223 11.58,2.231 16.46,3.051 10.53,1.621 17.23,7.309 20.09,17.07 2.84,9.739 5.48,22.321 7.92,37.758 3.24,21.133 5.07,51.192 5.49,90.184 0.4,38.988 0.61,83.637 0.61,134.019 v 182.779" /><path
         id="path38"
         style="fill:#192947;fill-opacity:1;fill-rule:nonzero;stroke:none"
         d="m 5556.3,688.672 c -28.43,4.066 -53.61,11.359 -75.54,21.93 -7.31,4.058 -11.78,8.109 -13.4,12.179 -1.64,4.071 -2.43,12.989 -2.43,26.809 0,25.992 0.79,48.531 2.43,67.64 1.62,19.071 2.83,33.079 3.65,42.032 0,11.359 2.84,17.058 8.53,17.058 6.49,0 9.75,-4.07 9.75,-12.191 0,-4.07 0.19,-9.547 0.61,-16.449 0.4,-6.91 1.41,-14.02 3.05,-21.309 4.05,-18.699 11.76,-34.539 23.14,-47.531 11.38,-13 24.99,-23.578 40.83,-31.68 15.84,-8.14 32.89,-14.019 51.17,-17.672 18.28,-3.648 36.35,-5.488 54.23,-5.488 53.61,0 93.83,13.199 120.63,39.602 26.8,26.398 40.21,59.109 40.21,98.089 0,18.68 -2.65,35.34 -7.92,49.957 -5.29,14.633 -13.4,28.641 -24.38,42.043 -10.96,13.399 -24.98,27 -42.03,40.821 -17.06,13.808 -37.37,29.648 -60.92,47.518 l -48.74,36.55 c -57.69,43.05 -97.69,81.84 -120.02,116.38 -22.36,34.51 -33.51,69.64 -33.51,105.4 0,30.04 5.67,57.27 17.05,81.63 11.37,24.37 27.62,44.88 48.74,61.54 21.11,16.64 46.1,29.44 74.94,38.37 28.83,8.94 61.12,13.42 96.87,13.42 21.11,0 41.62,-1.23 61.53,-3.66 19.9,-2.44 36.35,-5.29 49.36,-8.53 10.54,-2.44 18.46,-3.86 23.76,-4.26 5.28,-0.42 9.94,-0.62 14.01,-0.62 7.31,0 10.97,-2.43 10.97,-7.3 0,-2.44 -0.82,-12.41 -2.44,-29.86 -1.65,-17.48 -2.45,-44.08 -2.45,-79.81 0,-15.44 -2.85,-23.16 -8.52,-23.16 -4.07,0 -6.52,1.24 -7.32,3.67 -0.81,2.43 -1.63,5.66 -2.43,9.74 -0.82,6.5 -2.85,15.24 -6.09,26.2 -3.25,10.96 -6.51,19.28 -9.75,24.98 -1.64,3.24 -5.29,7.71 -10.96,13.4 -5.7,5.68 -14.02,11.37 -24.98,17.06 -10.96,5.67 -24.79,10.55 -41.43,14.62 -16.66,4.06 -37.17,6.1 -61.53,6.1 -39,0 -72.5,-9.56 -100.53,-28.64 -28.03,-19.1 -42.04,-46.91 -42.04,-83.46 0,-16.26 2.22,-31.28 6.7,-45.09 4.46,-13.82 12.18,-27.42 23.15,-40.82 10.97,-13.4 25.18,-27.23 42.66,-41.43 17.46,-14.23 39.59,-30.27 66.4,-48.13 l 30.46,-20.71 c 32.48,-21.94 59.9,-43.27 82.25,-63.98 22.33,-20.71 40.4,-41.02 54.23,-60.92 13.8,-19.91 23.75,-40.21 29.85,-60.921 6.09,-20.73 9.14,-42.051 9.14,-63.98 0,-30.879 -7.13,-61.739 -21.33,-92.598 -14.22,-30.879 -40.42,-58.902 -78.59,-84.082 -22.75,-14.617 -49.55,-24.367 -80.43,-29.25 -30.88,-4.867 -60.92,-7.309 -90.16,-7.309 -25.19,0 -52,2.051 -80.43,6.102" /><path
         id="path40"
         style="fill:#192947;fill-opacity:1;fill-rule:nonzero;stroke:none"
         d="m 6365.37,710.602 c -56.05,18.679 -105.21,46.296 -147.43,82.859 -26.02,22.73 -47.52,46.918 -64.58,72.5 -17.08,25.578 -30.47,51.57 -40.21,77.988 -9.76,26.379 -16.46,52.992 -20.12,79.801 -3.65,26.82 -5.48,52.4 -5.48,76.77 0,17.06 1.83,37.17 5.48,60.32 3.66,23.14 9.94,47.31 18.89,72.5 8.94,25.17 21.33,50.57 37.17,76.16 15.84,25.58 35.52,50.14 59.1,73.71 16.24,15.42 34.73,29.86 55.44,43.26 20.71,13.4 44.26,25.17 70.67,35.34 26.39,10.14 56.05,18.06 88.95,23.76 32.9,5.67 70.07,8.52 111.49,8.52 21.12,0 45.89,-1.02 74.33,-3.05 28.43,-2.03 55.63,-5.07 81.64,-9.14 20.3,-4.07 39.19,-7.52 56.67,-10.35 17.45,-2.86 35.12,-4.68 52.99,-5.49 8.93,0 13.41,-3.65 13.41,-10.95 0,-4.08 -0.42,-10.17 -1.22,-18.28 -0.82,-8.14 -2.04,-21.54 -3.65,-40.21 0,-8.95 -0.22,-18.7 -0.61,-29.25 -0.42,-10.56 -0.62,-21.13 -0.62,-31.68 0,-9.75 -0.2,-18.89 -0.59,-27.42 -0.43,-8.52 -0.62,-14.42 -0.62,-17.66 -0.82,-14.62 -4.87,-21.94 -12.19,-21.94 -5.69,0 -8.52,7.32 -8.52,21.94 0,20.29 -4.08,39.79 -12.19,58.48 -8.13,18.68 -19.1,33.7 -32.9,45.09 -18.7,16.24 -46.51,29.85 -83.47,40.82 -36.98,10.97 -79.41,16.46 -127.33,16.46 -34.12,0 -64.18,-2.05 -90.17,-6.11 -26,-4.07 -48.55,-9.55 -67.63,-16.43 -19.1,-6.93 -35.34,-14.63 -48.73,-23.16 -13.4,-8.53 -24.98,-17.27 -34.73,-26.2 -39.82,-36.56 -65.8,-77.59 -77.99,-123.07 -12.19,-45.5 -18.27,-94.64 -18.27,-147.44 0,-49.56 9.33,-97.08 28.03,-142.57 18.67,-45.492 45.07,-85.5 79.2,-120.019 34.11,-34.539 74.72,-61.949 121.84,-82.242 47.11,-20.321 99.5,-30.469 157.19,-30.469 40.6,0 74.94,2.84 102.96,8.531 28.03,5.68 52.6,19.078 73.72,40.207 11.37,11.383 20.71,26.203 28.03,44.473 7.31,18.277 11.76,32.301 13.4,42.039 1.62,5.68 2.84,9.539 3.65,11.59 0.8,2.012 3.24,3.039 7.31,3.039 2.44,0 4.67,-1.43 6.71,-4.258 2.02,-2.871 3.05,-6.301 3.05,-10.371 0,-1.629 -0.82,-7.918 -2.44,-18.879 -1.64,-10.973 -3.66,-23.359 -6.09,-37.16 -2.44,-13.832 -5.3,-27.84 -8.54,-42.039 -3.25,-14.223 -6.09,-25.801 -8.53,-34.731 -3.25,-9.75 -6.29,-16.269 -9.13,-19.492 -2.85,-3.258 -8.74,-6.91 -17.67,-10.98 -21.94,-8.91 -50.99,-15.02 -87.12,-18.27 -36.17,-3.238 -71.7,-4.879 -106.63,-4.879 -81.23,0 -149.87,9.352 -205.92,28.032" /><path
         id="path42"
         style="fill:#192947;fill-opacity:1;fill-rule:nonzero;stroke:none"
         d="m 7072.1,1179.72 c 0,39.79 0,72.29 0,97.49 0,25.16 0,45.49 0,60.91 0,16.25 -0.22,29.04 -0.62,38.38 -0.42,9.34 -1.03,18.08 -1.83,26.21 -1.63,17.86 -4.87,31.26 -9.74,40.21 -4.88,8.93 -16.27,14.62 -34.12,17.06 -4.08,0.8 -9.95,1.41 -17.68,1.83 -7.72,0.4 -14,0.6 -18.88,0.6 -5.69,0 -8.53,2.84 -8.53,8.54 0,5.67 5.67,8.52 17.06,8.52 12.19,0 25.17,-0.2 38.99,-0.6 13.81,-0.42 26.81,-0.62 39,-0.62 12.19,0 22.54,-0.2 31.06,-0.6 8.54,-0.42 13.61,-0.62 15.24,-0.62 0.8,0 7.31,0 19.49,0 12.19,0 26.81,0 43.87,0 17.87,0 36.96,0 57.27,0 21.1,0 41.01,0 59.71,0 18.67,0 34.91,0 48.74,0 13.8,0 22.72,0 26.81,0 10.54,0.8 20.29,1.84 29.23,3.05 8.94,1.23 15.43,2.23 19.51,3.05 2.44,0.81 4.87,1.83 7.3,3.05 2.43,1.21 4.87,1.83 7.31,1.83 3.24,0 4.88,-3.26 4.88,-9.76 0,-4.07 -1.03,-9.56 -3.05,-16.44 -2.03,-6.92 -3.86,-17.67 -5.48,-32.3 0,-2.43 -0.2,-6.7 -0.61,-12.79 -0.41,-6.1 -1.03,-12.79 -1.83,-20.1 -0.82,-7.31 -1.42,-14.23 -1.83,-20.71 -0.42,-6.52 -1.03,-11.39 -1.82,-14.63 -0.82,-2.44 -2.04,-4.87 -3.66,-7.32 -1.63,-2.43 -3.66,-3.65 -6.09,-3.65 -5.69,0 -8.52,4.46 -8.52,13.41 0,4.05 -0.43,9.53 -1.23,16.45 -0.81,6.89 -2.44,13.59 -4.88,20.1 -1.64,4.06 -3.85,7.71 -6.7,10.97 -2.85,3.23 -7.11,6.09 -12.79,8.54 -5.69,2.42 -13.01,4.65 -21.93,6.69 -8.96,2.02 -20.72,3.84 -35.33,5.48 -4.88,0.8 -15.04,1.41 -30.47,1.83 -15.44,0.4 -31.89,0.8 -49.35,1.22 -17.47,0.4 -33.51,0.62 -48.12,0.62 -14.63,0 -23.59,0 -26.82,0 -4.07,0 -6.09,-3.67 -6.09,-10.98 v -281.48 c 0,-7.31 2.02,-10.96 6.09,-10.96 3.23,0 12.99,0 29.25,0 17.06,0 35.74,0 56.04,0 20.3,0 39.4,0.19 57.28,0.61 17.86,0.4 30.04,1.01 36.55,1.83 12.99,1.62 23.55,3.05 31.68,4.27 8.12,1.22 15.02,4.66 20.71,10.36 8.94,8.91 14.2,13.4 15.84,13.4 4.06,0 6.11,-2.87 6.11,-8.53 0,-3.26 -1.04,-9.35 -3.06,-18.29 -2.04,-8.94 -3.87,-21.92 -5.48,-38.98 -1.64,-10.57 -2.86,-23.36 -3.65,-38.39 -0.82,-15.04 -1.23,-24.57 -1.23,-28.63 0,-4.08 -0.6,-8.34 -1.83,-12.8 -1.21,-4.47 -3.85,-6.7 -7.91,-6.7 -4.87,0 -7.31,3.23 -7.31,9.75 0,4.87 -0.21,10.14 -0.62,15.84 -0.41,5.67 -1.82,11.77 -4.25,18.28 -1.65,7.31 -5.91,13.81 -12.8,19.5 -6.91,5.66 -20.93,9.74 -42.04,12.18 -7.31,0.8 -19.09,1.62 -35.34,2.43 -16.25,0.8 -32.89,1.42 -49.95,1.83 -17.06,0.41 -32.9,0.61 -47.52,0.61 -14.63,0 -24.38,0 -29.25,0 -4.87,0 -7.31,-2.44 -7.31,-7.31 v -86.519 c 0,-8.941 0,-22.339 0,-40.199 0,-17.062 0,-34.933 0,-53.621 0,-18.691 0,-36.152 0,-52.391 0,-15.449 0,-25.589 0,-30.468 0.8,-17.051 2.83,-31.063 6.09,-42.032 3.23,-10.968 9.54,-19.5 18.89,-25.589 9.32,-6.09 22.13,-10.161 38.38,-12.192 16.25,-2.027 37.78,-3.039 64.59,-3.039 13.79,0 31.67,0.399 53.61,1.211 21.93,0.801 39.79,4.07 53.61,9.758 13.8,6.492 24.56,14.812 32.29,24.98 7.7,10.153 13.19,25.77 16.45,46.903 2.43,10.547 6.09,15.84 10.97,15.84 3.23,0 5.27,-1.641 6.09,-4.864 0.79,-3.258 1.21,-6.918 1.21,-10.976 0,-1.641 -0.42,-6.703 -1.21,-15.223 -0.82,-8.539 -2.04,-18.277 -3.66,-29.25 -1.64,-10.957 -3.25,-21.527 -4.87,-31.68 -1.64,-10.16 -3.26,-18.078 -4.88,-23.757 -1.64,-6.512 -3.85,-11.582 -6.69,-15.223 -2.87,-3.668 -6.3,-6.289 -10.37,-7.93 -4.07,-1.617 -9.56,-2.629 -16.44,-3.051 -6.92,-0.398 -15.66,-0.609 -26.2,-0.609 -40.64,0 -76.37,0.422 -107.23,1.223 -30.88,0.82 -57.27,1.636 -79.2,2.437 -22.76,1.641 -41.43,2.442 -56.05,2.442 -13.82,0 -24.8,0 -32.9,0 -1.63,0 -6.92,0 -15.84,0 -8.95,0 -19.1,-0.399 -30.46,-1.219 -10.58,-0.801 -21.33,-1.41 -32.3,-1.844 -10.96,-0.387 -20.92,-0.59 -29.85,-0.59 -11.39,0 -17.05,2.852 -17.05,8.524 0,5.679 2.83,8.527 8.52,8.527 4.88,0 10.36,0.609 16.46,1.82 6.08,1.223 11.57,2.231 16.43,3.051 10.56,1.621 17.26,7.309 20.12,17.07 2.83,9.739 5.48,22.321 7.91,37.758 3.24,21.133 5.07,51.192 5.49,90.184 0.4,38.988 0.62,83.637 0.62,134.019 v 182.779" /><path
         id="path44"
         style="fill:#192947;fill-opacity:1;fill-rule:nonzero;stroke:none"
         d="m 7788.56,837.32 c 0.8,-21.129 2.01,-38.789 3.65,-53 1.62,-14.218 4.06,-26 7.32,-35.34 3.23,-9.339 7.31,-16.261 12.18,-20.718 4.88,-4.461 10.97,-7.524 18.28,-9.133 9.74,-2.43 19.9,-4.07 30.45,-4.867 10.56,-0.821 18.29,-1.223 23.16,-1.223 5.67,0 8.53,-2.848 8.53,-8.527 0,-5.672 -6.51,-8.524 -19.5,-8.524 -30.88,0 -56.26,0.59 -76.15,1.821 -19.92,1.211 -32.29,1.832 -37.16,1.832 -4.88,0 -17.27,-0.621 -37.17,-1.832 -19.91,-1.231 -42.04,-1.821 -66.4,-1.821 -11.39,0 -17.07,2.852 -17.07,8.524 0,5.679 2.84,8.527 8.54,8.527 4.05,0 10.35,0.402 18.88,1.223 8.53,0.797 16.85,2.437 24.98,4.867 6.49,1.609 11.77,4.871 15.84,9.75 4.05,4.871 7.1,12.18 9.13,21.941 2.03,9.739 3.46,22.539 4.28,38.379 0.8,15.84 1.21,35.531 1.21,59.09 V 1441.7 c 0,21.11 1.41,35.13 4.27,42.04 2.84,6.89 6.29,10.35 10.36,10.35 6.49,0 13.59,-3.87 21.32,-11.57 7.71,-7.73 14.41,-14.42 20.1,-20.11 4.07,-4.07 16.24,-16.86 36.56,-38.38 20.29,-21.53 45.88,-48.55 76.76,-81.03 30.86,-32.49 65.79,-69.05 104.79,-109.66 38.99,-40.63 79.21,-82.06 120.63,-124.29 26.81,-27.62 53.41,-55.45 79.82,-83.46 26.38,-28.031 51.17,-54.231 74.32,-78.602 23.16,-24.359 43.45,-45.898 60.93,-64.578 17.46,-18.691 30.26,-32.101 38.38,-40.211 l -10.97,519.081 c -0.81,33.3 -3.65,56.85 -8.52,70.67 -4.87,13.81 -15.44,22.34 -31.69,25.59 -9.74,1.62 -19.91,2.83 -30.45,3.65 -10.58,0.8 -17.88,1.22 -21.94,1.22 -4.08,0 -6.52,1.22 -7.32,3.65 -0.81,2.45 -1.21,4.47 -1.21,6.11 0,4.86 6.9,7.3 20.71,7.3 24.37,0 47.52,-0.42 69.47,-1.22 21.92,-0.81 36.13,-1.22 42.63,-1.22 6.5,0 17.87,0.41 34.12,1.22 16.25,0.8 35.35,1.22 57.27,1.22 12.99,0 19.5,-2.44 19.5,-7.3 0,-1.64 -1.03,-3.66 -3.04,-6.11 -2.05,-2.43 -5.08,-3.65 -9.15,-3.65 -2.43,0 -5.69,0 -9.74,0 -4.07,0 -9.35,-0.81 -15.84,-2.43 -8.96,-1.64 -15.84,-4.47 -20.71,-8.52 -4.89,-4.09 -8.54,-9.57 -10.97,-16.46 -2.44,-6.9 -4.07,-15.65 -4.87,-26.2 -0.82,-10.56 -1.22,-23.57 -1.22,-39 L 8423.4,763 c 0,-17.059 -0.21,-30.461 -0.61,-40.219 -0.42,-9.742 -0.82,-17.261 -1.22,-22.543 -0.42,-5.269 -1.22,-8.527 -2.44,-9.738 -1.21,-1.211 -2.65,-1.828 -4.26,-1.828 -2.44,0 -5.29,0.816 -8.54,2.43 -3.25,1.636 -7.92,4.679 -14.01,9.136 -6.08,4.461 -13.82,10.774 -23.14,18.891 -9.35,8.109 -21.32,19.07 -35.95,32.902 -2.44,2.43 -13.21,12.801 -32.3,31.078 -19.09,18.282 -42.04,41 -68.83,68.231 -26.81,27.199 -56.05,56.84 -87.74,88.949 -31.68,32.082 -61.75,62.751 -90.17,92.001 -30.87,32.48 -61.14,64.36 -90.78,95.65 -29.65,31.26 -57.08,60.1 -82.25,86.51 -25.19,26.39 -46.91,49.36 -65.19,68.84 -18.27,19.5 -31.48,33.71 -39.6,42.65 l 12.19,-488.62" /><path
         id="path46"
         style="fill:#192947;fill-opacity:1;fill-rule:nonzero;stroke:none"
         d="m 8992.43,996.941 c 0,-50.382 0.19,-95.031 0.61,-134.019 0.4,-38.992 1.82,-69.051 4.26,-90.184 1.62,-15.437 4.87,-27.828 9.76,-37.156 4.87,-9.352 15.42,-15.23 31.68,-17.672 7.3,-1.629 16.02,-2.851 26.2,-3.648 10.14,-0.821 17.66,-1.223 22.54,-1.223 5.67,0 8.52,-2.848 8.52,-8.527 0,-5.672 -5.69,-8.524 -17.05,-8.524 -14.63,0 -29.46,0.203 -44.48,0.59 -15.04,0.434 -28.85,0.82 -41.43,1.231 -12.6,0.41 -23.15,0.82 -31.68,1.211 -8.53,0.421 -13.61,0.621 -15.23,0.621 -1.63,0 -6.71,-0.2 -15.24,-0.621 -8.52,-0.391 -18.69,-0.801 -30.45,-1.211 -11.79,-0.411 -23.58,-0.797 -35.35,-1.231 -11.77,-0.387 -21.73,-0.59 -29.85,-0.59 -11.39,0 -17.06,2.852 -17.06,8.524 0,4.867 2.84,7.32 8.53,7.32 4.88,0 10.15,0.387 15.84,1.207 5.68,0.801 10.97,2.02 15.84,3.66 11.37,2.43 19.09,8.52 23.16,18.281 4.05,9.739 6.88,22.321 8.52,37.758 2.45,21.133 3.85,51.192 4.27,90.184 0.4,38.988 0.61,83.637 0.61,134.019 v 435.009 l -154.76,-2.44 c -34.11,-0.82 -58.68,-3.46 -73.71,-7.91 -15.04,-4.48 -26.61,-12.8 -34.73,-24.98 -6.51,-8.95 -10.56,-15.65 -12.18,-20.12 -1.64,-4.46 -3.26,-8.73 -4.88,-12.78 -1.64,-6.51 -5.29,-9.76 -10.96,-9.76 -1.64,0 -3.26,0.62 -4.88,1.83 -1.64,1.22 -2.44,3.46 -2.44,6.71 0,2.43 1.23,9.33 3.66,20.71 2.45,11.37 5.07,23.35 7.92,35.95 2.85,12.59 5.49,24.37 7.92,35.33 2.45,10.98 3.66,17.68 3.66,20.12 1.62,3.22 3.44,7.29 5.48,12.18 2.02,4.87 3.84,7.3 5.48,7.3 4.06,0 9.34,-1.63 15.84,-4.87 6.5,-3.25 17.06,-5.69 31.69,-7.32 15.41,-1.63 31.68,-2.85 48.73,-3.65 17.06,-0.81 28.83,-1.22 35.34,-1.22 h 404.55 c 17.86,0 32.9,0.41 45.08,1.22 12.18,0.8 22.73,2.02 31.68,3.65 8.11,1.63 14.62,2.85 19.5,3.67 4.87,0.8 8.52,1.22 10.96,1.22 3.23,0 4.88,-4.08 4.88,-12.18 0,-8.14 -0.21,-18.28 -0.61,-30.47 -0.42,-12.19 -0.82,-24.18 -1.22,-35.95 -0.41,-11.78 -0.82,-22.55 -1.21,-32.28 -0.43,-9.76 -0.62,-16.27 -0.62,-19.5 0,-8.96 -3.25,-13.41 -9.74,-13.41 -2.44,0 -4.27,1.22 -5.48,3.65 -1.23,2.44 -2.26,7.31 -3.06,14.63 l -1.22,10.97 c -0.82,8.11 -3.25,15.42 -7.3,21.93 -4.08,6.48 -10.78,12.38 -20.11,17.67 -9.35,5.27 -22.35,9.32 -39,12.18 -16.66,2.84 -37.57,4.66 -62.74,5.48 l -134.04,2.44 V 996.941" /><path
         id="path48"
         style="fill:#a18e6a;fill-opacity:1;fill-rule:nonzero;stroke:none"
         d="m 79.1016,215.02 c 0,-32.231 0,-84.122 0.3945,-90.372 1.2695,-20.527 1.2695,-26.3472 14.2344,-32.6363 11.2925,-5.4531 29.2855,-6.25 36.8245,-6.25 22.562,0 58.961,12.1172 58.961,59.3673 0,25.121 -8.36,61.473 -40.578,83.641 -14.208,9.628 -24.68,10.902 -34.708,12.171 -5.449,0.848 -26.3472,0.848 -32.6441,0.848 -1.664,0 -2.4843,-0.848 -2.4843,-2.957 z m 0,44.339 c 0,-2.968 0.8203,-3.808 2.9101,-4.609 2.5117,-0.418 10.0508,-1.691 25.5273,-1.691 23.41,0 29.281,0.851 38.066,10.902 8.782,10 15.051,25.07 15.051,42.211 0,34.707 -15.472,71.949 -56.476,71.949 -4.6058,0 -13.387,-0.41 -20.0784,-2.062 -3.7578,-0.848 -5,-2.11 -5,-4.598 z m -33.4649,9.192 c 0,65.238 0,76.941 -0.8476,90.32 -0.8438,14.238 -4.1797,20.949 -17.9883,23.859 -3.332,0.84 -10.4492,1.27 -14.2305,1.27 -1.668,0 -3.33202,0.84 -3.33202,2.48 0,2.54 2.08982,3.329 6.69142,3.329 18.8359,0 45.1836,-1.207 47.2734,-1.207 10.0235,0 26.3477,1.207 45.5779,1.207 68.621,0 83.672,-41.778 83.672,-62.739 0,-34.281 -19.652,-54.761 -39.336,-75.281 30.977,-9.578 72.375,-39.309 72.375,-88.25 0,-44.758 -35.129,-91.1601 -106.656,-91.1601 -4.606,0 -17.988,0.793 -30.1329,1.2109 -12.1172,0.8516 -23.8359,1.2696 -25.5,1.2696 -0.8476,0 -7.9648,0 -16.7461,-0.418 -8.3593,0 -17.9882,-0.8516 -24.2578,-0.8516 -4.6015,0 -6.6914,0.8516 -6.6914,3.3907 0,1.2187 0.8438,2.4883 3.3594,2.4883 3.7539,0 8.7812,0.8398 12.5391,1.6914 8.3593,1.6406 10.4492,10.8515 12.1406,22.9608 2.0898,17.57 2.0898,50.641 2.0898,90.789 v 73.641" /><path
         id="path50"
         style="fill:#a18e6a;fill-opacity:1;fill-rule:nonzero;stroke:none"
         d="m 418.148,187.398 c 1.696,0 1.696,0.84 1.274,2.481 l -36.399,97.461 c -2.089,5.449 -4.179,5.449 -6.269,0 l -34.313,-97.461 c -0.394,-1.641 0,-2.481 1.27,-2.481 z m -40.972,148.094 c 4.601,11.688 6.265,13.809 8.781,13.809 3.758,0 5.023,-5.031 8.785,-13.02 6.692,-15.031 65.653,-161.851 88.246,-215.812 13.383,-31.7971 23.438,-36.3987 31.371,-38.8909 5.45,-1.6875 10.875,-2.1093 14.661,-2.1093 2.089,0 4.597,-0.8477 4.597,-2.9102 0,-2.1172 -4.179,-2.9688 -8.383,-2.9688 -5.425,0 -32.617,0 -58.121,0.8516 -7.113,0.418 -12.984,0.418 -12.984,2.5391 0,1.6406 0.848,1.6406 2.512,2.4883 2.089,0.8398 5.875,3.75 3.359,9.6328 L 426.961,170.68 c -0.848,1.64 -1.273,2.058 -3.359,2.058 h -84.914 c -1.672,0 -2.942,-0.847 -3.754,-2.906 l -20.93,-56.922 c -3.328,-8.789 -5.418,-17.5702 -5.418,-23.8084 0,-7.1524 6.269,-9.6328 12.539,-9.6328 h 3.328 c 2.938,0 3.785,-1.2696 3.785,-2.9102 0,-2.1172 -2.09,-2.9688 -5.449,-2.9688 -8.785,0 -28.863,1.2696 -33.043,1.2696 -3.754,0 -22.168,-1.2696 -37.215,-1.2696 -4.605,0 -7.121,0.8516 -7.121,2.9688 0,1.6406 1.672,2.9102 3.336,2.9102 2.516,0 7.965,0.4218 10.875,0.8398 16.742,2.0703 23.856,14.6133 30.977,32.6014 l 86.578,222.582" /><path
         id="path52"
         style="fill:#a18e6a;fill-opacity:1;fill-rule:nonzero;stroke:none"
         d="m 597.848,122.109 c 0.847,-29.2574 4.179,-38.0387 14.234,-40.5309 6.691,-1.6875 15.055,-2.1093 18.383,-2.1093 1.695,0 2.937,-1.2696 2.937,-2.9102 0,-2.1172 -2.511,-2.9688 -6.691,-2.9688 -20.926,0 -35.555,1.2696 -38.91,1.2696 -3.336,0 -18.813,-1.2696 -35.559,-1.2696 -3.754,0 -5.844,0.4297 -5.844,2.9688 0,1.6406 1.243,2.9102 2.934,2.9102 2.91,0 9.606,0.4218 15.055,2.1093 9.203,2.4922 10.449,12.1211 10.449,44.3439 v 203.687 c 0,14.243 2.09,17.993 5.023,17.993 4.18,0 10.45,-7.141 14.235,-10.903 5.844,-5.82 59.383,-62.738 116.289,-121.258 36.371,-37.671 75.707,-79.941 87,-91.632 l -3.778,178.179 c -0.425,23.024 -2.515,30.961 -13.808,33.071 -6.695,1.222 -15.055,1.64 -17.988,1.64 -2.493,0 -2.911,2.121 -2.911,3.391 0,2.058 2.911,2.492 7.114,2.492 16.718,0 34.281,-0.852 38.461,-0.852 4.211,0 16.324,0.852 31.379,0.852 3.777,0 6.687,-0.434 6.687,-2.492 0,-1.27 -1.664,-3.391 -4.18,-3.391 -1.664,0 -4.597,0 -8.777,-0.84 -12.121,-2.488 -12.965,-9.578 -12.965,-30.961 L 815.773,96.6094 c 0,-23.4375 -0.425,-25.5 -2.91,-25.5 -3.785,0 -7.539,2.9101 -28.043,21.7422 -3.754,3.3398 -56.875,55.6094 -95.785,96.1874 -42.672,44.762 -84.066,88.301 -95.367,100.84 l 4.18,-167.77" /><path
         id="path54"
         style="fill:#a18e6a;fill-opacity:1;fill-rule:nonzero;stroke:none"
         d="m 1036.97,83.6484 c 33.04,0 99.97,17.9926 99.97,120.4726 0,84.488 -52.3,130.098 -110.42,130.098 -61.5,0 -105.836,-38.098 -105.836,-115.867 0,-82 49.785,-134.7036 116.286,-134.7036 z m 48.52,-3.7578 C 1072.1,73.1719 1047,68.9883 1027.34,68.9883 c -101.629,0 -144.297,75.7227 -144.297,139.7307 0,57.301 44.336,138.883 145.967,138.883 82.83,0 145.57,-51.063 145.57,-133.43 0,-62.32 -40.58,-104.172 -64.83,-119.2501 l 75.31,-37.2031 c 80.31,-39.7266 135.94,-41.8399 154.33,-41.8399 18.41,0 46.45,4.6016 71.95,13.8125 2.51,0.8399 4.18,1.2695 5.45,1.2695 1.24,0 2.09,-1.6992 2.09,-2.539 0,-1.6406 -0.85,-2.9102 -2.94,-3.7617 C 1395.02,15.4492 1353.19,0 1298.8,0 c -44.73,0 -92.85,14.6094 -152.23,46.832 l -61.08,33.0586" /><path
         id="path56"
         style="fill:#a18e6a;fill-opacity:1;fill-rule:nonzero;stroke:none"
         d="m 1245.58,239.672 c 0,55.226 0,65.226 -0.82,76.558 -0.84,11.27 -2.93,17.989 -15.05,19.629 -2.94,0.422 -9.21,0.84 -12.57,0.84 -1.24,0 -2.93,1.699 -2.93,2.973 0,2.058 1.69,2.91 5.87,2.91 16.72,0 38.89,-0.852 42.25,-0.852 3.33,0 26.34,0.852 37.22,0.852 4.18,0 6.27,-0.852 6.27,-2.91 0,-1.274 -1.67,-2.973 -3.34,-2.973 -2.51,0 -4.6,0 -9.2,-0.84 -9.63,-1.64 -11.72,-7.937 -12.54,-19.629 -0.85,-11.332 -0.85,-21.332 -0.85,-76.558 v -49.793 c 0,-51.418 11.3,-72.738 27.2,-86.969 17.98,-16.3514 33.88,-19.2616 54.78,-19.2616 22.59,0 44.34,10.0508 56.9,25.0816 17.14,20.532 20.9,49.79 20.9,86.18 v 44.762 c 0,55.226 -0.4,65.226 -0.82,76.558 -0.42,11.27 -2.51,17.989 -14.65,19.629 -2.91,0.422 -9.21,0.84 -12.54,0.84 -1.67,0 -2.94,1.699 -2.94,2.973 0,2.058 1.67,2.91 5.87,2.91 16.3,0 37.65,-0.852 39.74,-0.852 2.51,0 20.08,0.852 30.94,0.852 4.18,0 5.85,-0.852 5.85,-2.91 0,-1.274 -1.24,-2.973 -2.91,-2.973 -2.51,0 -4.6,0 -9.21,-0.84 -10.05,-2.07 -12.14,-7.937 -12.95,-19.629 -0.85,-11.332 -0.43,-21.332 -0.43,-76.558 v -38.043 c 0,-38.508 -5.02,-81.578 -34.31,-106.7071 -26.77,-22.9727 -55.21,-25.9336 -76.95,-25.9336 -12.14,0 -50.63,0.8515 -76.56,25.1328 -17.98,16.7189 -32.22,41.3789 -32.22,93.2769 v 52.274" /><path
         id="path58"
         style="fill:#a18e6a;fill-opacity:1;fill-rule:nonzero;stroke:none"
         d="m 1570.88,239.672 c 0,55.226 0,65.226 -0.85,76.558 -0.82,12.11 -2.91,17.989 -15.05,19.629 -2.94,0.422 -9.21,0.84 -12.54,0.84 -1.27,0 -2.94,1.699 -2.94,2.973 0,2.058 1.67,2.91 5.85,2.91 16.75,0 40.58,-0.852 42.67,-0.852 2.51,0 79.49,-0.421 87.85,0 7.11,0.418 13.81,1.692 16.72,2.122 1.69,0.418 3.36,1.64 5.02,1.64 1.27,0 1.67,-1.64 1.67,-3.344 0,-2.476 -2.09,-6.656 -2.91,-16.718 -0.42,-3.328 -1.27,-19.258 -2.09,-23.442 -0.42,-1.687 -1.69,-3.75 -3.36,-3.75 -2.09,0 -2.94,1.692 -2.94,4.602 0,2.488 -0.39,8.359 -2.09,12.539 -2.51,5.871 -6.27,8.359 -26.34,10.902 -6.27,0.789 -48.94,1.219 -53.12,1.219 -1.66,0 -2.09,-1.219 -2.09,-3.762 v -96.609 c 0,-2.539 0,-3.75 2.09,-3.75 4.61,0 53.12,0 61.48,0.84 8.8,0.801 14.23,1.222 17.98,4.98 2.52,2.543 4.21,4.602 5.45,4.602 1.25,0 2.09,-0.789 2.09,-2.91 0,-2.121 -2.09,-7.942 -2.93,-19.68 -0.82,-7.09 -1.67,-20.481 -1.67,-22.973 0,-2.957 -0.85,-6.718 -3.33,-6.718 -1.7,0 -2.52,1.269 -2.52,3.339 0,3.379 0,7.141 -1.69,11.743 -1.24,5.027 -4.58,9.207 -18.8,10.847 -10.06,1.27 -49.36,1.692 -55.63,1.692 -2.09,0 -2.52,-1.27 -2.52,-2.539 v -29.68 c 0,-12.121 -0.42,-53.543 0,-60.633 0.85,-23.8593 7.54,-28.4609 43.91,-28.4609 9.63,0 27.2,0 36.82,3.75 9.61,4.1836 14.63,10.4809 16.72,24.7109 0.85,4.18 1.7,5.402 3.79,5.402 2.09,0 2.48,-2.91 2.48,-5.402 0,-2.539 -2.91,-26.7695 -5,-34.3398 -2.51,-9.1992 -6.29,-9.1992 -20.5,-9.1992 -27.61,0 -48.94,0.8398 -63.98,1.2695 -15.51,0.8399 -25.11,0.8399 -30.56,0.8399 -0.82,0 -7.94,0 -15.9,-0.418 -7.09,-0.4219 -15.47,-0.8516 -21.32,-0.8516 -3.76,0 -5.85,0.8516 -5.85,2.9688 0,1.2109 0.82,2.9102 2.91,2.9102 3.36,0 7.97,1.2695 11.3,1.6914 7.12,1.2187 7.96,8.3593 9.63,18.7812 2.09,14.6606 2.09,42.6996 2.09,76.9806 v 62.75" /><path
         id="path60"
         style="fill:#a18e6a;fill-opacity:1;fill-rule:nonzero;stroke:none"
         d="m 1881.89,176.922 c 0,-34.281 0,-62.32 1.67,-76.9806 1.27,-10.4219 2.93,-17.1406 14.23,-18.7812 5.02,-0.8516 13.38,-1.6914 16.71,-1.6914 2.52,0 2.94,-1.6993 2.94,-2.9102 0,-1.6992 -1.67,-2.9688 -5.84,-2.9688 -20.08,0 -43.52,1.2696 -45.61,1.2696 -1.67,0 -27.2,-1.2696 -38.06,-1.2696 -4.18,0 -5.85,0.8516 -5.85,2.9688 0,1.2109 0.82,2.4805 2.91,2.4805 3.36,0 7.54,0.8515 10.89,1.6992 7.52,1.6406 9.61,8.7812 10.88,19.2031 1.66,14.6606 1.66,42.6996 1.66,76.9806 v 149.359 l -53.11,-0.851 c -23.02,-0.418 -31.8,-2.91 -37.25,-11.321 -4.18,-6.238 -4.58,-8.781 -5.85,-11.269 -0.84,-2.91 -2.09,-3.328 -3.75,-3.328 -0.85,0 -2.52,0.789 -2.52,2.91 0,3.75 7.54,35.547 7.94,38.457 0.85,2.121 2.51,6.723 3.78,6.723 2.49,0 6.27,-2.911 16.3,-4.18 10.47,-1.274 24.68,-1.692 28.86,-1.692 h 138.88 c 12.14,0 20.5,0.852 26.35,1.692 5.45,0.848 8.78,1.637 10.47,1.637 1.67,0 1.67,-2.059 1.67,-4.18 0,-10.84 -1.27,-36.348 -1.27,-40.578 0,-2.91 -1.67,-4.551 -3.33,-4.551 -1.67,0 -2.52,1.219 -2.94,6.238 l -0.42,3.762 c -1.25,10.898 -9.18,18.84 -44.34,19.68 l -46,0.851 V 176.922" /><path
         id="path62"
         style="fill:#a18e6a;fill-opacity:1;fill-rule:nonzero;stroke:none"
         d="m 2090.42,176.922 c 0,-34.281 0,-62.32 1.67,-76.9806 1.27,-10.4219 2.51,-17.1406 13.38,-18.7812 5.45,-0.8516 13.39,-1.6914 16.75,-1.6914 2.09,0 2.91,-1.6993 2.91,-2.9102 0,-1.6992 -1.67,-2.9688 -5.85,-2.9688 -20.5,0 -44.34,1.2696 -46,1.2696 -2.09,0 -25.11,-1.2696 -36.4,-1.2696 -3.76,0 -5.85,0.8516 -5.85,2.9688 0,1.2109 0.82,2.9102 2.91,2.9102 3.36,0 7.97,0.8398 11.3,1.6914 7.11,1.6406 8.35,8.3593 9.62,18.7812 1.67,14.6606 2.09,42.6996 2.09,76.9806 v 62.75 c 0,55.226 0,65.226 -0.84,76.558 -0.82,12.11 -3.76,17.559 -11.7,19.262 -4.2,0.789 -8.77,1.207 -11.29,1.207 -1.69,0 -2.93,1.699 -2.93,2.973 0,2.058 1.66,2.91 5.84,2.91 12.14,0 35.16,-0.852 37.25,-0.852 1.66,0 25.5,0.852 36.79,0.852 4.18,0 5.88,-0.852 5.88,-2.91 0,-1.274 -1.7,-2.973 -2.94,-2.973 -2.51,0 -5.03,0 -9.21,-0.84 -10.05,-2.07 -12.14,-7.089 -12.96,-19.629 -0.42,-11.332 -0.42,-21.332 -0.42,-76.558 v -62.75" /><path
         id="path64"
         style="fill:#a18e6a;fill-opacity:1;fill-rule:nonzero;stroke:none"
         d="m 2226.92,122.109 c 0.84,-29.2574 4.18,-38.0387 14.23,-40.5309 6.69,-1.6875 15.05,-2.1093 18.38,-2.1093 1.7,0 2.94,-1.2696 2.94,-2.9102 0,-2.1172 -2.51,-2.9688 -6.69,-2.9688 -20.93,0 -35.55,1.2696 -38.89,1.2696 -3.36,0 -18.83,-1.2696 -35.58,-1.2696 -3.76,0 -5.85,0.4297 -5.85,2.9688 0,1.6406 1.27,2.9102 2.94,2.9102 2.91,0 9.6,0.4218 15.05,2.1093 9.21,2.4922 10.45,12.1211 10.45,44.3439 v 203.687 c 0,14.243 2.09,17.993 5.03,17.993 4.18,0 10.45,-7.141 14.23,-10.903 5.85,-5.82 59.39,-62.738 116.29,-121.258 36.37,-37.671 75.71,-79.941 87.01,-91.632 l -3.79,178.179 c -0.42,23.024 -2.51,30.961 -13.81,33.071 -6.69,1.222 -15.05,1.64 -17.96,1.64 -2.51,0 -2.94,2.121 -2.94,3.391 0,2.058 2.94,2.492 7.12,2.492 16.72,0 34.29,-0.852 38.47,-0.852 4.18,0 16.31,0.852 31.37,0.852 3.78,0 6.69,-0.434 6.69,-2.492 0,-1.27 -1.67,-3.391 -4.18,-3.391 -1.67,0 -4.6,0 -8.78,-0.84 -12.12,-2.488 -12.97,-9.578 -12.97,-30.961 l -0.84,-208.2886 c 0,-23.4375 -0.4,-25.5 -2.91,-25.5 -3.78,0 -7.54,2.9101 -28.04,21.7422 -3.76,3.3398 -56.88,55.6094 -95.79,96.1874 -42.67,44.762 -84.07,88.301 -95.36,100.84 l 4.18,-167.77" /><path
         id="path66"
         style="fill:#a18e6a;fill-opacity:1;fill-rule:nonzero;stroke:none"
         d="m 2727.52,164.379 c 0,28.84 -0.82,33.07 -15.9,35.98 -2.91,0.422 -9.18,0.852 -12.54,0.852 -1.24,0 -2.94,1.641 -2.94,2.91 0,2.481 1.7,2.91 5.88,2.91 16.72,0 41.4,-0.801 43.49,-0.801 1.66,0 24.68,0.801 35.98,0.801 4.17,0 5.84,-0.429 5.84,-2.91 0,-1.269 -1.67,-2.91 -2.91,-2.91 -2.51,0 -5.02,0 -9.2,-0.852 -10.06,-1.687 -12.97,-7.14 -13.81,-19.679 -0.43,-11.27 -0.43,-21.739 -0.43,-36.77 v -39.789 c 0,-16.2929 -0.42,-16.7226 -5,-19.1991 -23.44,-12.1719 -56.9,-15.9336 -78.22,-15.9336 -28.04,0 -80.31,3.3906 -121.31,38.1017 -22.6,18.832 -43.91,56.871 -43.91,101.211 0,56.879 28.85,97.027 61.47,116.711 33.04,20.047 69.86,22.59 97.88,22.59 23.43,0 49.36,-4.18 56.48,-5.872 7.53,-1.64 20.5,-3.761 29.7,-3.761 3.76,0 4.61,-1.688 4.61,-3.328 0,-5.032 -2.12,-14.661 -2.12,-50.211 0,-5.879 -1.67,-7.52 -4.18,-7.52 -2.09,0 -2.49,2.07 -2.49,5.399 -0.42,4.601 -2.51,15.082 -8.38,23.441 -9.21,13.391 -37.22,27.621 -84.92,27.621 -22.17,0 -48.94,-1.691 -76.95,-23.019 -21.35,-16.293 -36.4,-48.082 -36.4,-89.512 0,-50.16 25.92,-86.129 38.91,-98.301 29.29,-27.1992 60.24,-37.1992 94.1,-37.1992 12.98,0 30.13,1.2188 39.76,6.6719 4.6,2.5391 7.51,4.1797 7.51,10.8983 v 61.469" /><path
         id="path68"
         style="fill:#a18e6a;fill-opacity:1;fill-rule:nonzero;stroke:none"
         d="m 3270.45,194.91 c 0,-40.148 0,-73.219 2.09,-90.789 1.26,-12.1093 3.78,-21.3202 16.32,-22.9608 5.84,-0.8516 15.05,-1.6914 18.83,-1.6914 2.52,0 3.33,-1.2696 3.33,-2.4883 0,-2.1211 -2.09,-3.3907 -6.69,-3.3907 -23.02,0 -49.36,1.2696 -51.45,1.2696 -2.09,0 -28.44,-1.2696 -40.97,-1.2696 -4.61,0 -6.7,0.8516 -6.7,3.3907 0,1.2187 0.82,2.4883 3.34,2.4883 3.75,0 8.78,0.8398 12.56,1.6914 8.36,1.6406 10.45,10.8515 12.11,22.9608 2.09,17.57 2.09,50.641 2.09,90.789 v 43.922 c 0,1.688 -1.24,2.539 -2.51,2.539 h -177.34 c -1.27,0 -2.51,-0.43 -2.51,-2.539 V 194.91 c 0,-40.148 0,-73.219 2.09,-90.789 1.24,-12.1093 3.75,-21.3202 16.32,-22.9608 5.84,-0.8516 15.05,-1.6914 18.81,-1.6914 2.51,0 3.36,-1.2696 3.36,-2.4883 0,-2.1211 -2.09,-3.3907 -6.7,-3.3907 -23.01,0 -49.36,1.2696 -51.45,1.2696 -2.09,0 -28.44,-1.2696 -41,-1.2696 -4.6,0 -6.69,0.8516 -6.69,3.3907 0,1.2187 0.84,2.4883 3.36,2.4883 3.75,0 8.78,0.8398 12.53,1.6914 8.36,1.6406 10.45,10.8515 12.15,22.9608 2.09,17.57 2.09,50.641 2.09,90.789 v 73.641 c 0,65.238 0,76.941 -0.85,90.32 -0.85,14.238 -4.18,20.949 -17.99,23.859 -3.33,0.84 -10.45,1.27 -14.23,1.27 -1.67,0 -3.33,0.84 -3.33,2.48 0,2.54 2.09,3.329 6.69,3.329 18.83,0 45.18,-1.207 47.27,-1.207 2.09,0 28.44,1.207 40.98,1.207 4.6,0 6.69,-0.789 6.69,-3.329 0,-1.64 -1.67,-2.48 -3.33,-2.48 -2.94,0 -5.45,-0.43 -10.45,-1.27 -11.3,-2.109 -14.66,-9.199 -15.5,-23.859 -0.82,-13.379 -0.82,-25.082 -0.82,-90.32 v -8.77 c 0,-2.121 1.24,-2.543 2.51,-2.543 h 177.34 c 1.27,0 2.51,0.422 2.51,2.543 v 8.77 c 0,65.238 0,76.941 -0.82,90.32 -0.84,14.238 -4.2,20.949 -17.99,23.859 -3.35,0.84 -10.47,1.27 -14.22,1.27 -1.67,0 -3.36,0.84 -3.36,2.48 0,2.54 2.09,3.329 6.69,3.329 18.83,0 45.18,-1.207 47.27,-1.207 2.09,0 28.43,1.207 41,1.207 4.61,0 6.7,-0.789 6.7,-3.329 0,-1.64 -1.67,-2.48 -3.37,-2.48 -2.9,0 -5.42,-0.43 -10.44,-1.27 -11.3,-2.109 -14.63,-9.199 -15.48,-23.859 -0.84,-13.379 -0.84,-25.082 -0.84,-90.32 V 194.91" /><path
         id="path70"
         style="fill:#a18e6a;fill-opacity:1;fill-rule:nonzero;stroke:none"
         d="m 3507.15,187.398 c 1.69,0 1.69,0.84 1.27,2.481 l -36.4,97.461 c -2.09,5.449 -4.18,5.449 -6.27,0 l -34.31,-97.461 c -0.4,-1.641 0,-2.481 1.27,-2.481 z m -40.98,148.094 c 4.6,11.688 6.27,13.809 8.78,13.809 3.76,0 5.03,-5.031 8.79,-13.02 6.69,-15.031 65.66,-161.851 88.24,-215.812 13.39,-31.7971 23.44,-36.3987 31.38,-38.8909 5.45,-1.6875 10.87,-2.1093 14.65,-2.1093 2.09,0 4.61,-0.8477 4.61,-2.9102 0,-2.1172 -4.18,-2.9688 -8.39,-2.9688 -5.42,0 -32.62,0 -58.12,0.8516 -7.11,0.418 -12.98,0.418 -12.98,2.5391 0,1.6406 0.84,1.6406 2.51,2.4883 2.09,0.8398 5.87,3.75 3.36,9.6328 l -33.04,81.5784 c -0.85,1.64 -1.27,2.058 -3.36,2.058 h -84.92 c -1.66,0 -2.93,-0.847 -3.75,-2.906 L 3403,112.91 c -3.33,-8.789 -5.42,-17.5702 -5.42,-23.8084 0,-7.1524 6.27,-9.6328 12.54,-9.6328 h 3.33 c 2.94,0 3.78,-1.2696 3.78,-2.9102 0,-2.1172 -2.09,-2.9688 -5.45,-2.9688 -8.78,0 -28.85,1.2696 -33.03,1.2696 -3.76,0 -22.17,-1.2696 -37.23,-1.2696 -4.6,0 -7.11,0.8516 -7.11,2.9688 0,1.6406 1.67,2.9102 3.33,2.9102 2.51,0 7.96,0.4218 10.87,0.8398 16.75,2.0703 23.87,14.6133 30.98,32.6014 l 86.58,222.582" /><path
         id="path72"
         style="fill:#a18e6a;fill-opacity:1;fill-rule:nonzero;stroke:none"
         d="m 3704.83,176.07 c 0,-52.261 0.85,-73.59 7.54,-79.8786 5.85,-5.8203 20.08,-8.3633 48.94,-8.3633 19.23,0 35.55,0.4219 44.34,10.9024 4.6,5.3905 7.51,12.9605 8.78,20.0505 0.42,2.539 1.66,4.598 3.75,4.598 1.67,0 2.52,-1.688 2.52,-5.449 0,-3.75 -2.52,-25.0784 -5.45,-35.5511 -2.49,-8.3594 -3.76,-9.6289 -23.41,-9.6289 -26.35,0 -46.85,0.4219 -63.99,1.2695 -16.75,0.4219 -29.28,0.8399 -40.16,0.8399 -1.69,0 -7.96,0 -15.08,-0.418 -7.51,-0.4219 -15.47,-0.8516 -21.32,-0.8516 -3.75,0 -5.84,0.8516 -5.84,2.9688 0,1.2109 0.82,2.9102 2.91,2.9102 3.35,0 7.96,0.8398 11.29,1.6914 7.12,1.6406 7.96,8.3593 9.63,18.7812 2.09,14.6606 2.09,42.6996 2.09,76.9806 v 62.75 c 0,55.226 0,65.226 -0.85,76.558 -0.82,12.11 -2.91,17.989 -15.05,19.629 -2.93,0.422 -9.2,0.84 -12.54,0.84 -1.27,0 -2.93,1.699 -2.93,2.973 0,2.058 1.66,2.91 5.84,2.91 16.75,0 39.76,-0.852 41.85,-0.852 1.67,0 29.26,0.852 40.55,0.852 3.79,0 5.88,-0.852 5.88,-2.91 0,-1.274 -1.67,-2.543 -2.94,-2.543 -2.51,0 -7.94,-0.43 -12.12,-0.848 -10.9,-2.062 -12.98,-7.511 -13.81,-20.051 -0.42,-11.332 -0.42,-21.332 -0.42,-76.558 V 176.07" /><path
         id="path74"
         style="fill:#a18e6a;fill-opacity:1;fill-rule:nonzero;stroke:none"
         d="m 3928.81,176.07 c 0,-52.261 0.85,-73.59 7.54,-79.8786 5.85,-5.8203 20.08,-8.3633 48.94,-8.3633 19.23,0 35.55,0.4219 44.33,10.9024 4.61,5.3905 7.52,12.9605 8.79,20.0505 0.42,2.539 1.66,4.598 3.75,4.598 1.67,0 2.52,-1.688 2.52,-5.449 0,-3.75 -2.52,-25.0784 -5.45,-35.5511 -2.49,-8.3594 -3.76,-9.6289 -23.41,-9.6289 -26.35,0 -46.85,0.4219 -63.99,1.2695 -16.75,0.4219 -29.29,0.8399 -40.16,0.8399 -1.69,0 -7.96,0 -15.08,-0.418 -7.51,-0.4219 -15.47,-0.8516 -21.32,-0.8516 -3.76,0 -5.85,0.8516 -5.85,2.9688 0,1.2109 0.83,2.9102 2.91,2.9102 3.36,0 7.97,0.8398 11.3,1.6914 7.12,1.6406 7.96,8.3593 9.63,18.7812 2.09,14.6606 2.09,42.6996 2.09,76.9806 v 62.75 c 0,55.226 0,65.226 -0.85,76.558 -0.82,12.11 -2.91,17.989 -15.05,19.629 -2.94,0.422 -9.2,0.84 -12.54,0.84 -1.27,0 -2.93,1.699 -2.93,2.973 0,2.058 1.66,2.91 5.84,2.91 16.75,0 39.76,-0.852 41.85,-0.852 1.67,0 29.28,0.852 40.55,0.852 3.79,0 5.88,-0.852 5.88,-2.91 0,-1.274 -1.67,-2.543 -2.94,-2.543 -2.51,0 -7.94,-0.43 -12.12,-0.848 -10.9,-2.062 -12.99,-7.511 -13.81,-20.051 -0.42,-11.332 -0.42,-21.332 -0.42,-76.558 V 176.07" /><path
         id="path76"
         style="fill:#a18e6a;fill-opacity:1;fill-rule:nonzero;stroke:none"
         d="m 4406.82,120.898 c -23.41,19.204 -64.84,58.934 -75.71,70.68 -10.87,11.692 -37.64,41.434 -49.36,58.57 -21.74,-14.226 -37.64,-36.828 -37.64,-70.316 0,-52.273 36.82,-89.8906 83.64,-89.8906 38.92,0 64.84,16.2966 79.07,30.9566 z m -195.33,39.313 c 0,48.93 31.38,81.578 63.99,100.789 -15.47,21.73 -20.5,38.93 -20.5,57.711 0,33.07 33.89,76.98 89.94,76.98 21.32,0 39.31,-4.179 50.61,-10.48 5.02,-2.91 5.45,-5.391 5.45,-10.422 0,-12.527 -1.7,-41.84 -2.94,-48.09 -1.24,-6.289 -2.51,-7.14 -4.18,-7.14 -2.09,0 -2.51,1.691 -2.51,7.941 0,10.898 -2.52,24.711 -12.97,35.551 -9.2,9.629 -23.43,18.41 -41.82,18.41 -25.1,0 -53.14,-15.441 -53.14,-54.762 0,-32.64 22.59,-59.828 66.1,-107.078 14.21,-15.5 65.66,-63.59 79.05,-74.91 11.71,15.91 21.34,43.961 21.34,69.461 0,6.238 -1.69,14.226 -7.96,20.476 -5.42,5.454 -14.2,6.723 -20.5,6.723 -2.48,0 -5,0.84 -5,2.91 0,2.11 3.34,2.91 6.7,2.91 10.02,0 26.76,-0.429 50.18,-2.91 6.27,-0.851 7.54,-4.179 7.54,-8.359 0,-33.922 -23.02,-76.133 -41.43,-98.731 27.62,-23.441 46.03,-34.711 57.75,-41.4293 13.38,-7.9336 34.7,-16.2929 49.75,-16.2929 3.79,0 5.88,-0.4297 5.88,-2.9102 0,-1.6992 -3.36,-2.9688 -7.12,-2.9688 h -41 c -30.95,0 -40.98,2.9688 -87,39.3202 -9.63,-9.578 -42.67,-45.1405 -104.57,-45.1405 -73.2,0 -101.64,56.0395 -101.64,92.4415" /><path
         id="path78"
         style="fill:#a18e6a;fill-opacity:1;fill-rule:nonzero;stroke:none"
         d="m 4728.49,112.91 c -40.54,36.399 -50.6,84.121 -50.6,123.852 0,27.988 9.63,76.929 46.84,114.179 25.11,25.118 63.18,44.75 127.59,44.75 16.72,0 40.16,-1.269 60.65,-5.031 15.9,-2.91 29.29,-5.449 42.68,-6.238 4.57,-0.422 5.42,-2.121 5.42,-4.602 0,-3.379 -1.24,-8.359 -2.09,-23.429 -0.85,-13.809 -0.85,-36.832 -1.24,-43.071 -0.43,-6.3 -1.27,-8.789 -3.79,-8.789 -2.91,0 -3.33,2.91 -3.33,8.789 0,16.289 -6.69,33.442 -17.57,42.641 -14.65,12.539 -46.84,23.859 -83.67,23.859 -55.62,0 -81.55,-16.34 -96.21,-30.519 -30.53,-29.321 -37.64,-66.571 -37.64,-109.199 0,-79.891 61.51,-153.1215 151,-153.1215 31.37,0 56.05,3.7578 72.79,20.9495 8.79,9.211 14.21,27.57 15.48,35.14 0.85,4.602 1.67,6.239 4.18,6.239 2.09,0 2.94,-2.911 2.94,-6.239 0,-2.968 -5.03,-39.32 -9.21,-53.5505 -2.51,-7.9414 -3.36,-8.7812 -10.87,-12.1679 -16.75,-6.6719 -48.54,-9.5821 -75.31,-9.5821 -62.73,0 -105,15.4493 -138.04,45.1405" /><path
         id="path80"
         style="fill:#a18e6a;fill-opacity:1;fill-rule:nonzero;stroke:none"
         d="m 5160.92,83.6484 c 33.04,0 99.54,17.5626 99.54,120.4726 0,85.328 -51.87,130.098 -110.02,130.098 -61.47,0 -105.81,-38.469 -105.81,-115.867 0,-82.852 49.76,-134.7036 116.29,-134.7036 z m -8.39,263.9536 c 82.84,0 145.58,-50.633 145.58,-133.43 0,-79.461 -58.99,-145.1837 -147.67,-145.1837 -100.81,0 -143.87,75.7227 -143.87,139.7307 0,57.301 44.33,138.883 145.96,138.883" /><path
         id="path82"
         style="fill:#a18e6a;fill-opacity:1;fill-rule:nonzero;stroke:none"
         d="m 5390.86,122.109 c 0.84,-29.2574 4.17,-38.0387 14.22,-40.5309 6.7,-1.6875 15.06,-2.1093 18.39,-2.1093 1.69,0 2.94,-1.2696 2.94,-2.9102 0,-2.1172 -2.52,-2.9688 -6.7,-2.9688 -20.92,0 -35.54,1.2696 -38.9,1.2696 -3.34,0 -18.81,-1.2696 -35.56,-1.2696 -3.76,0 -5.85,0.4297 -5.85,2.9688 0,1.6406 1.25,2.9102 2.94,2.9102 2.91,0 9.6,0.4218 15.05,2.1093 9.21,2.4922 10.45,12.1211 10.45,44.3439 v 203.687 c 0,14.243 2.09,17.993 5.03,17.993 4.18,0 10.45,-7.141 14.23,-10.903 5.84,-5.82 59.39,-62.738 116.28,-121.258 36.38,-37.671 75.72,-79.941 87.02,-91.632 l -3.79,178.179 c -0.42,23.024 -2.51,30.961 -13.81,33.071 -6.69,1.222 -15.05,1.64 -17.99,1.64 -2.48,0 -2.91,2.121 -2.91,3.391 0,2.058 2.91,2.492 7.12,2.492 16.72,0 34.29,-0.852 38.47,-0.852 4.2,0 16.31,0.852 31.36,0.852 3.79,0 6.7,-0.434 6.7,-2.492 0,-1.27 -1.67,-3.391 -4.18,-3.391 -1.67,0 -4.61,0 -8.79,-0.84 -12.11,-2.488 -12.96,-9.578 -12.96,-30.961 l -0.84,-208.2886 c 0,-23.4375 -0.42,-25.5 -2.92,-25.5 -3.77,0 -7.53,2.9101 -28.03,21.7422 -3.76,3.3398 -56.88,55.6094 -95.79,96.1874 -42.67,44.762 -84.07,88.301 -95.36,100.84 l 4.18,-167.77" /><path
         id="path84"
         style="fill:#a18e6a;fill-opacity:1;fill-rule:nonzero;stroke:none"
         d="m 5715.78,239.672 c 0,55.226 0,65.226 -0.84,76.558 -0.82,12.11 -2.91,17.989 -15.06,19.629 -2.93,0.422 -9.2,0.84 -12.54,0.84 -1.27,0 -2.93,1.699 -2.93,2.973 0,2.058 1.66,2.91 5.84,2.91 16.75,0 39.77,-0.852 41.86,-0.852 7.08,0 87,-0.421 95.36,0 7.12,0.418 13.39,0.418 16.72,1.692 2.09,0.43 3.77,2.07 5.02,2.07 1.66,0 2.51,-1.64 2.51,-3.344 0,-2.476 -1.67,-6.656 -2.94,-16.718 -0.39,-3.328 -0.82,-19.258 -1.66,-23.442 -0.43,-1.687 -1.67,-3.75 -3.34,-3.75 -1.68,0 -2.92,1.692 -2.92,4.184 0,2.906 -1.27,8.777 -3.36,13.379 -2.09,4.609 -10.88,10.48 -25.08,10.48 l -60.24,0.789 c -2.09,0 -2.94,-0.789 -2.94,-3.75 v -97.031 c 0,-2.07 0,-3.34 2.51,-3.34 l 50.19,0.43 c 6.3,0 11.72,0 16.75,0.422 8.78,0.789 13.81,2.058 17.14,6.238 1.67,2.121 3.36,3.762 4.6,3.762 1.67,0 2.09,-1.219 2.09,-2.91 0,-2.121 -2.51,-7.942 -3.33,-19.68 -0.85,-7.09 -1.27,-21.332 -1.27,-23.813 0,-3.339 -0.82,-7.148 -3.33,-7.148 -2.09,0 -2.52,1.699 -2.52,3.391 -0.42,3.757 -0.84,8.781 -2.51,12.961 -1.67,5.027 -7.54,9.628 -18.84,11.269 -9.2,1.27 -52.7,0.848 -58.97,0.848 -2.09,0 -2.51,-0.848 -2.51,-3.328 v -28.469 c 0,-35.121 0,-63.172 1.67,-76.9806 1.27,-10.4219 3.36,-17.1406 13.38,-18.7812 5.45,-0.8516 13.39,-1.6914 16.75,-1.6914 2.09,0 2.91,-1.6993 2.91,-2.9102 0,-1.6992 -1.67,-2.9688 -5.85,-2.9688 -20.5,0 -44.33,1.2696 -45.99,1.2696 -2.09,0 -25.11,-1.2696 -36.41,-1.2696 -3.75,0 -5.84,0.8516 -5.84,2.9688 0,1.2109 0.82,2.9102 2.91,2.9102 3.36,0 7.96,1.2695 11.29,1.6914 7.12,1.2187 7.97,8.3593 9.63,18.7812 2.09,14.6606 2.09,42.6996 2.09,76.9806 v 62.75" /><path
         id="path86"
         style="fill:#a18e6a;fill-opacity:1;fill-rule:nonzero;stroke:none"
         d="m 5939.76,239.672 c 0,55.226 0,65.226 -0.85,76.558 -0.82,12.11 -2.91,17.989 -15.05,19.629 -2.94,0.422 -9.21,0.84 -12.54,0.84 -1.27,0 -2.94,1.699 -2.94,2.973 0,2.058 1.67,2.91 5.85,2.91 16.75,0 40.58,-0.852 42.67,-0.852 2.51,0 79.49,-0.421 87.85,0 7.12,0.418 13.81,1.692 16.72,2.122 1.69,0.418 3.36,1.64 5.03,1.64 1.27,0 1.66,-1.64 1.66,-3.344 0,-2.476 -2.09,-6.656 -2.91,-16.718 -0.42,-3.328 -1.27,-19.258 -2.09,-23.442 -0.42,-1.687 -1.69,-3.75 -3.36,-3.75 -2.09,0 -2.93,1.692 -2.93,4.602 0,2.488 -0.4,8.359 -2.09,12.539 -2.49,5.871 -6.27,8.359 -26.35,10.902 -6.27,0.789 -48.94,1.219 -53.12,1.219 -1.66,0 -2.09,-1.219 -2.09,-3.762 v -96.609 c 0,-2.539 0,-3.75 2.09,-3.75 4.61,0 53.12,0 61.48,0.84 8.78,0.801 14.23,1.222 17.99,4.98 2.51,2.543 4.18,4.602 5.45,4.602 1.24,0 2.09,-0.789 2.09,-2.91 0,-2.121 -2.09,-7.942 -2.94,-19.68 -0.82,-7.09 -1.67,-20.481 -1.67,-22.973 0,-2.957 -0.84,-6.718 -3.33,-6.718 -1.69,0 -2.51,1.269 -2.51,3.339 0,3.379 0,7.141 -1.7,11.743 -1.24,5.027 -4.6,9.207 -18.81,10.847 -10.05,1.27 -49.35,1.692 -55.62,1.692 -2.09,0 -2.52,-1.27 -2.52,-2.539 v -29.68 c 0,-12.121 -0.42,-53.543 0,-60.633 0.85,-23.8593 7.54,-28.4609 43.91,-28.4609 9.63,0 27.2,0 36.83,3.75 9.6,4.1836 14.63,10.4809 16.72,24.7109 0.84,4.18 1.66,5.402 3.78,5.402 2.09,0 2.49,-2.91 2.49,-5.402 0,-2.539 -2.91,-26.7695 -5,-34.3398 -2.52,-9.1992 -6.27,-9.1992 -20.51,-9.1992 -27.62,0 -48.93,0.8398 -63.98,1.2695 -15.48,0.8399 -25.11,0.8399 -30.56,0.8399 -0.82,0 -7.94,0 -15.9,-0.418 -7.09,-0.4219 -15.48,-0.8516 -21.32,-0.8516 -3.76,0 -5.85,0.8516 -5.85,2.9688 0,1.2109 0.82,2.9102 2.91,2.9102 3.36,0 7.97,1.2695 11.3,1.6914 7.11,1.2187 7.96,8.3593 9.63,18.7812 2.09,14.6606 2.09,42.6996 2.09,76.9806 v 62.75" /><path
         id="path88"
         style="fill:#a18e6a;fill-opacity:1;fill-rule:nonzero;stroke:none"
         d="m 6202.25,209.57 c 0,-2.121 0.82,-3.34 2.52,-4.609 5.42,-2.961 24.26,-5.449 40.55,-5.449 8.79,0 18.84,0.429 27.62,6.297 12.53,8.363 22.16,27.203 22.16,54.339 0,44.383 -24.25,69.891 -63.56,69.891 -10.9,0 -22.59,-1.269 -26.38,-2.117 -1.66,-0.852 -2.91,-2.063 -2.91,-4.184 z m -31.8,30.102 c 0,55.226 0,65.226 -0.84,76.558 -0.82,12.11 -2.91,17.989 -15.05,19.629 -2.93,0.422 -9.2,0.84 -12.54,0.84 -1.27,0 -2.93,1.699 -2.93,2.973 0,2.058 1.66,2.91 5.84,2.91 16.75,0 41.42,-0.852 43.51,-0.852 3.76,0 34.71,0.852 46.01,0.852 23.44,0 49.36,-2.121 68.62,-15.512 9.18,-6.66 25.5,-23.808 25.5,-48.519 0,-26.34 -10.87,-51.84 -45.19,-81.102 30.14,-37.66 55.64,-69.89 76.99,-92.058 19.66,-20.0512 31.79,-23.4418 40.97,-24.6527 7.12,-1.2695 10.9,-1.2695 12.99,-1.2695 2.09,0 3.33,-1.6993 3.33,-2.9102 0,-2.1172 -2.09,-2.9688 -8.78,-2.9688 h -23.02 c -20.89,0 -30.09,2.1211 -39.3,7.1485 -15.9,8.3633 -29.29,25.4997 -50.21,52.2737 -15.48,19.258 -31.77,42.218 -39.73,51.847 -1.67,1.692 -2.51,2.11 -5,2.11 l -46.85,0.851 c -1.7,0 -2.52,-0.851 -2.52,-2.961 V 176.5 c 0,-34.281 0,-61.898 1.67,-76.5586 1.24,-10.4219 3.33,-17.1406 14.63,-18.7812 5.03,-0.8516 12.99,-1.6914 16.32,-1.6914 2.52,0 2.94,-1.6993 2.94,-2.9102 0,-1.6992 -1.67,-2.9688 -5.87,-2.9688 -20.08,0 -43.5,1.2696 -45.16,1.2696 -0.43,0 -25.1,-1.2696 -36.4,-1.2696 -3.75,0 -5.84,0.8516 -5.84,2.9688 0,1.2109 0.82,2.9102 2.91,2.9102 3.36,0 7.96,0.8398 11.29,1.6914 7.12,1.6406 7.96,8.3593 9.62,18.7812 2.09,14.6606 2.09,42.6996 2.09,76.9806 v 62.75" /><path
         id="path90"
         style="fill:#a18e6a;fill-opacity:1;fill-rule:nonzero;stroke:none"
         d="m 6451.79,239.672 c 0,55.226 0,65.226 -0.85,76.558 -0.82,12.11 -2.91,17.989 -15.05,19.629 -2.94,0.422 -9.2,0.84 -12.53,0.84 -1.27,0 -2.94,1.699 -2.94,2.973 0,2.058 1.67,2.91 5.85,2.91 16.73,0 40.57,-0.852 42.66,-0.852 2.51,0 79.49,-0.421 87.85,0 7.11,0.418 13.81,1.692 16.72,2.122 1.69,0.418 3.36,1.64 5.02,1.64 1.27,0 1.67,-1.64 1.67,-3.344 0,-2.476 -2.09,-6.656 -2.91,-16.718 -0.42,-3.328 -1.27,-19.258 -2.09,-23.442 -0.42,-1.687 -1.69,-3.75 -3.36,-3.75 -2.09,0 -2.94,1.692 -2.94,4.602 0,2.488 -0.39,8.359 -2.09,12.539 -2.48,5.871 -6.27,8.359 -26.35,10.902 -6.26,0.789 -48.93,1.219 -53.11,1.219 -1.66,0 -2.09,-1.219 -2.09,-3.762 v -96.609 c 0,-2.539 0,-3.75 2.09,-3.75 4.61,0 53.11,0 61.47,0.84 8.79,0.801 14.24,1.222 17.99,4.98 2.52,2.543 4.18,4.602 5.45,4.602 1.25,0 2.09,-0.789 2.09,-2.91 0,-2.121 -2.09,-7.942 -2.93,-19.68 -0.82,-7.09 -1.67,-20.481 -1.67,-22.973 0,-2.957 -0.85,-6.718 -3.33,-6.718 -1.7,0 -2.52,1.269 -2.52,3.339 0,3.379 0,7.141 -1.69,11.743 -1.24,5.027 -4.6,9.207 -18.81,10.847 -10.04,1.27 -49.35,1.692 -55.62,1.692 -2.09,0 -2.52,-1.27 -2.52,-2.539 v -29.68 c 0,-12.121 -0.42,-53.543 0,-60.633 0.85,-23.8593 7.54,-28.4609 43.92,-28.4609 9.62,0 27.18,0 36.81,3.75 9.61,4.1836 14.63,10.4809 16.72,24.7109 0.85,4.18 1.67,5.402 3.79,5.402 2.09,0 2.48,-2.91 2.48,-5.402 0,-2.539 -2.91,-26.7695 -5,-34.3398 -2.51,-9.1992 -6.27,-9.1992 -20.5,-9.1992 -27.61,0 -48.93,0.8398 -63.98,1.2695 -15.48,0.8399 -25.11,0.8399 -30.56,0.8399 -0.82,0 -7.94,0 -15.9,-0.418 -7.09,-0.4219 -15.48,-0.8516 -21.32,-0.8516 -3.76,0 -5.85,0.8516 -5.85,2.9688 0,1.2109 0.83,2.9102 2.92,2.9102 3.35,0 7.95,1.2695 11.29,1.6914 7.11,1.2187 7.96,8.3593 9.63,18.7812 2.09,14.6606 2.09,42.6996 2.09,76.9806 v 62.75" /><path
         id="path92"
         style="fill:#a18e6a;fill-opacity:1;fill-rule:nonzero;stroke:none"
         d="m 6697.96,122.109 c 0.84,-29.2574 4.18,-38.0387 14.23,-40.5309 6.69,-1.6875 15.05,-2.1093 18.39,-2.1093 1.69,0 2.93,-1.2696 2.93,-2.9102 0,-2.1172 -2.51,-2.9688 -6.69,-2.9688 -20.93,0 -35.55,1.2696 -38.91,1.2696 -3.33,0 -18.81,-1.2696 -35.55,-1.2696 -3.76,0 -5.85,0.4297 -5.85,2.9688 0,1.6406 1.24,2.9102 2.94,2.9102 2.91,0 9.6,0.4218 15.05,2.1093 9.21,2.4922 10.45,12.1211 10.45,44.3439 v 203.687 c 0,14.243 2.09,17.993 5.03,17.993 4.18,0 10.45,-7.141 14.22,-10.903 5.85,-5.82 59.39,-62.738 116.29,-121.258 36.38,-37.671 75.72,-79.941 87.01,-91.632 l -3.78,178.179 c -0.42,23.024 -2.51,30.961 -13.81,33.071 -6.69,1.222 -15.05,1.64 -17.99,1.64 -2.49,0 -2.91,2.121 -2.91,3.391 0,2.058 2.91,2.492 7.12,2.492 16.72,0 34.28,-0.852 38.46,-0.852 4.2,0 16.32,0.852 31.37,0.852 3.78,0 6.69,-0.434 6.69,-2.492 0,-1.27 -1.66,-3.391 -4.18,-3.391 -1.66,0 -4.6,0 -8.78,-0.84 -12.12,-2.488 -12.96,-9.578 -12.96,-30.961 l -0.85,-208.2886 c 0,-23.4375 -0.42,-25.5 -2.91,-25.5 -3.78,0 -7.53,2.9101 -28.03,21.7422 -3.76,3.3398 -56.88,55.6094 -95.79,96.1874 -42.67,44.762 -84.08,88.301 -95.37,100.84 l 4.18,-167.77" /><path
         id="path94"
         style="fill:#a18e6a;fill-opacity:1;fill-rule:nonzero;stroke:none"
         d="m 7028.31,107.09 c -35.98,30.949 -44.76,71.519 -44.76,105.39 0,23.86 8.78,65.282 41.4,97.032 22.16,21.367 55.63,38.09 112.11,38.09 14.63,0 35.55,-1.27 53.54,-4.18 13.81,-2.543 25.5,-5.024 37.65,-5.453 3.75,0 4.6,-1.688 4.6,-3.75 0,-2.91 -0.85,-7.149 -1.67,-20.11 -0.42,-11.687 -0.42,-31.379 -0.84,-36.347 -0.43,-5.453 -2.09,-7.563 -4.18,-7.563 -2.52,0 -2.94,2.531 -2.94,7.563 0,13.758 -5.85,27.988 -15.48,35.558 -12.96,10.84 -39.73,19.629 -72.34,19.629 -47.28,0 -69.87,-12.539 -82.84,-24.66 -27.18,-25.129 -33.03,-56.918 -33.03,-92.848 0,-68.191 53.93,-128.8824 132.58,-128.8824 27.62,0 46.03,2.1133 60.66,16.7734 7.94,7.938 12.96,22.957 14.23,29.68 0.82,3.758 1.25,5.027 3.76,5.027 1.67,0 3.33,-2.539 3.33,-5.027 0,-2.481 -5,-33.4925 -8.78,-45.6136 -2.09,-6.6601 -2.91,-7.9296 -9.21,-10.4179 -15.05,-5.8711 -42.64,-7.9922 -66.5,-7.9922 -55.21,0 -92.43,12.9609 -121.29,38.1017" /><path
         id="path96"
         style="fill:#a18e6a;fill-opacity:1;fill-rule:nonzero;stroke:none"
         d="m 7321.81,239.672 c 0,55.226 0,65.226 -0.85,76.558 -0.82,12.11 -2.91,17.989 -15.05,19.629 -2.94,0.422 -9.21,0.84 -12.54,0.84 -1.26,0 -2.93,1.699 -2.93,2.973 0,2.058 1.67,2.91 5.84,2.91 16.74,0 40.58,-0.852 42.67,-0.852 2.51,0 79.49,-0.421 87.85,0 7.12,0.418 13.81,1.692 16.72,2.122 1.69,0.418 3.36,1.64 5.03,1.64 1.27,0 1.66,-1.64 1.66,-3.344 0,-2.476 -2.09,-6.656 -2.91,-16.718 -0.42,-3.328 -1.27,-19.258 -2.09,-23.442 -0.42,-1.687 -1.69,-3.75 -3.36,-3.75 -2.09,0 -2.93,1.692 -2.93,4.602 0,2.488 -0.4,8.359 -2.09,12.539 -2.52,5.871 -6.27,8.359 -26.35,10.902 -6.27,0.789 -48.94,1.219 -53.12,1.219 -1.66,0 -2.09,-1.219 -2.09,-3.762 v -96.609 c 0,-2.539 0,-3.75 2.09,-3.75 4.61,0 53.12,0 61.48,0.84 8.81,0.801 14.23,1.222 17.99,4.98 2.51,2.543 4.2,4.602 5.45,4.602 1.24,0 2.09,-0.789 2.09,-2.91 0,-2.121 -2.09,-7.942 -2.94,-19.68 -0.82,-7.09 -1.67,-20.481 -1.67,-22.973 0,-2.957 -0.84,-6.718 -3.33,-6.718 -1.69,0 -2.51,1.269 -2.51,3.339 0,3.379 0,7.141 -1.7,11.743 -1.24,5.027 -4.57,9.207 -18.81,10.847 -10.05,1.27 -49.35,1.692 -55.62,1.692 -2.09,0 -2.52,-1.27 -2.52,-2.539 v -29.68 c 0,-12.121 -0.42,-53.543 0,-60.633 0.85,-23.8593 7.54,-28.4609 43.92,-28.4609 9.62,0 27.19,0 36.82,3.75 9.6,4.1836 14.63,10.4809 16.72,24.7109 0.84,4.18 1.69,5.402 3.78,5.402 2.09,0 2.49,-2.91 2.49,-5.402 0,-2.539 -2.91,-26.7695 -5,-34.3398 -2.52,-9.1992 -6.3,-9.1992 -20.51,-9.1992 -27.62,0 -48.93,0.8398 -63.98,1.2695 -15.51,0.8399 -25.11,0.8399 -30.56,0.8399 -0.82,0 -7.94,0 -15.9,-0.418 -7.09,-0.4219 -15.48,-0.8516 -21.32,-0.8516 -3.76,0 -5.85,0.8516 -5.85,2.9688 0,1.2109 0.82,2.9102 2.91,2.9102 3.36,0 7.96,1.2695 11.3,1.6914 7.11,1.2187 7.96,8.3593 9.63,18.7812 2.09,14.6606 2.09,42.6996 2.09,76.9806 v 62.75" /><path
         id="path98"
         style="fill:#a18e6a;fill-opacity:1;fill-rule:nonzero;stroke:none"
         d="m 7701.1,112.91 c -40.56,36.399 -50.61,84.121 -50.61,123.852 0,27.988 9.63,76.929 46.85,114.179 25.11,25.118 63.17,44.75 127.58,44.75 16.72,0 40.15,-1.269 60.66,-5.031 15.9,-2.91 29.28,-5.449 42.67,-6.238 4.58,-0.422 5.42,-2.121 5.42,-4.602 0,-3.379 -1.24,-8.359 -2.09,-23.429 -0.84,-13.809 -0.84,-36.832 -1.24,-43.071 -0.42,-6.3 -1.27,-8.789 -3.78,-8.789 -2.91,0 -3.34,2.91 -3.34,8.789 0,16.289 -6.69,33.442 -17.56,42.641 -14.66,12.539 -46.86,23.859 -83.67,23.859 -55.64,0 -81.55,-16.34 -96.21,-30.519 -30.53,-29.321 -37.65,-66.571 -37.65,-109.199 0,-79.891 61.5,-153.1215 151,-153.1215 31.37,0 56.05,3.7578 72.8,20.9495 8.78,9.211 14.2,27.57 15.47,35.14 0.85,4.602 1.67,6.239 4.18,6.239 2.09,0 2.94,-2.911 2.94,-6.239 0,-2.968 -5.03,-39.32 -9.21,-53.5505 -2.51,-7.9414 -3.36,-8.7812 -10.87,-12.1679 -16.75,-6.6719 -48.55,-9.5821 -75.31,-9.5821 -62.72,0 -104.99,15.4493 -138.03,45.1405" /><path
         id="path100"
         style="fill:#a18e6a;fill-opacity:1;fill-rule:nonzero;stroke:none"
         d="m 8025.6,239.672 c 0,55.226 0,65.226 -0.85,76.558 -0.82,12.11 -2.91,17.989 -15.05,19.629 -2.94,0.422 -9.21,0.84 -12.54,0.84 -1.27,0 -2.94,1.699 -2.94,2.973 0,2.058 1.67,2.91 5.85,2.91 16.74,0 40.58,-0.852 42.67,-0.852 2.51,0 79.49,-0.421 87.85,0 7.11,0.418 13.81,1.692 16.72,2.122 1.69,0.418 3.36,1.64 5.02,1.64 1.27,0 1.67,-1.64 1.67,-3.344 0,-2.476 -2.09,-6.656 -2.91,-16.718 -0.42,-3.328 -1.27,-19.258 -2.09,-23.442 -0.42,-1.687 -1.69,-3.75 -3.36,-3.75 -2.09,0 -2.94,1.692 -2.94,4.602 0,2.488 -0.39,8.359 -2.09,12.539 -2.48,5.871 -6.27,8.359 -26.35,10.902 -6.27,0.789 -48.93,1.219 -53.11,1.219 -1.67,0 -2.09,-1.219 -2.09,-3.762 v -96.609 c 0,-2.539 0,-3.75 2.09,-3.75 4.6,0 53.11,0 61.47,0.84 8.79,0.801 14.24,1.222 17.99,4.98 2.52,2.543 4.18,4.602 5.45,4.602 1.25,0 2.09,-0.789 2.09,-2.91 0,-2.121 -2.09,-7.942 -2.93,-19.68 -0.82,-7.09 -1.67,-20.481 -1.67,-22.973 0,-2.957 -0.85,-6.718 -3.33,-6.718 -1.7,0 -2.52,1.269 -2.52,3.339 0,3.379 0,7.141 -1.69,11.743 -1.24,5.027 -4.6,9.207 -18.81,10.847 -10.05,1.27 -49.36,1.692 -55.63,1.692 -2.09,0 -2.51,-1.27 -2.51,-2.539 v -29.68 c 0,-12.121 -0.42,-53.543 0,-60.633 0.85,-23.8593 7.54,-28.4609 43.91,-28.4609 9.63,0 27.19,0 36.82,3.75 9.61,4.1836 14.63,10.4809 16.72,24.7109 0.85,4.18 1.67,5.402 3.79,5.402 2.09,0 2.48,-2.91 2.48,-5.402 0,-2.539 -2.91,-26.7695 -5,-34.3398 -2.51,-9.1992 -6.27,-9.1992 -20.5,-9.1992 -27.62,0 -48.93,0.8398 -63.99,1.2695 -15.47,0.8399 -25.1,0.8399 -30.55,0.8399 -0.82,0 -7.94,0 -15.9,-0.418 -7.09,-0.4219 -15.48,-0.8516 -21.32,-0.8516 -3.76,0 -5.85,0.8516 -5.85,2.9688 0,1.2109 0.82,2.9102 2.91,2.9102 3.36,0 7.96,1.2695 11.3,1.6914 7.11,1.2187 7.96,8.3593 9.63,18.7812 2.09,14.6606 2.09,42.6996 2.09,76.9806 v 62.75" /><path
         id="path102"
         style="fill:#a18e6a;fill-opacity:1;fill-rule:nonzero;stroke:none"
         d="m 8271.77,122.109 c 0.84,-29.2574 4.18,-38.0387 14.23,-40.5309 6.69,-1.6875 15.05,-2.1093 18.39,-2.1093 1.69,0 2.93,-1.2696 2.93,-2.9102 0,-2.1172 -2.51,-2.9688 -6.69,-2.9688 -20.93,0 -35.56,1.2696 -38.92,1.2696 -3.33,0 -18.8,-1.2696 -35.54,-1.2696 -3.76,0 -5.85,0.4297 -5.85,2.9688 0,1.6406 1.24,2.9102 2.94,2.9102 2.91,0 9.6,0.4218 15.05,2.1093 9.21,2.4922 10.45,12.1211 10.45,44.3439 v 203.687 c 0,14.243 2.09,17.993 5.02,17.993 4.18,0 10.45,-7.141 14.23,-10.903 5.85,-5.82 59.39,-62.738 116.29,-121.258 36.38,-37.671 75.72,-79.941 87,-91.632 l -3.77,178.179 c -0.42,23.024 -2.51,30.961 -13.81,33.071 -6.69,1.222 -15.05,1.64 -17.99,1.64 -2.49,0 -2.91,2.121 -2.91,3.391 0,2.058 2.91,2.492 7.12,2.492 16.72,0 34.27,-0.852 38.45,-0.852 4.21,0 16.33,0.852 31.38,0.852 3.78,0 6.69,-0.434 6.69,-2.492 0,-1.27 -1.66,-3.391 -4.18,-3.391 -1.66,0 -4.6,0 -8.78,-0.84 -12.12,-2.488 -12.96,-9.578 -12.96,-30.961 l -0.85,-208.2886 c 0,-23.4375 -0.42,-25.5 -2.91,-25.5 -3.78,0 -7.54,2.9101 -28.03,21.7422 -3.76,3.3398 -56.88,55.6094 -95.8,96.1874 -42.66,44.762 -84.07,88.301 -95.36,100.84 l 4.18,-167.77" /><path
         id="path104"
         style="fill:#a18e6a;fill-opacity:1;fill-rule:nonzero;stroke:none"
         d="m 8685.37,176.922 c 0,-34.281 0,-62.32 1.67,-76.9806 1.27,-10.4219 2.93,-17.1406 14.23,-18.7812 5.02,-0.8516 13.38,-1.6914 16.71,-1.6914 2.51,0 2.94,-1.6993 2.94,-2.9102 0,-1.6992 -1.67,-2.9688 -5.85,-2.9688 -20.07,0 -43.51,1.2696 -45.6,1.2696 -1.67,0 -27.2,-1.2696 -38.07,-1.2696 -4.18,0 -5.85,0.8516 -5.85,2.9688 0,1.2109 0.82,2.4805 2.91,2.4805 3.36,0 7.54,0.8515 10.9,1.6992 7.52,1.6406 9.61,8.7812 10.88,19.2031 1.66,14.6606 1.66,42.6996 1.66,76.9806 v 149.359 l -53.12,-0.851 c -23.01,-0.418 -31.79,-2.91 -37.24,-11.321 -4.18,-6.238 -4.6,-8.781 -5.85,-11.269 -0.84,-2.91 -2.09,-3.328 -3.75,-3.328 -0.85,0 -2.52,0.789 -2.52,2.91 0,3.75 7.52,35.547 7.94,38.457 0.85,2.121 2.51,6.723 3.78,6.723 2.52,0 6.27,-2.911 16.3,-4.18 10.48,-1.274 24.67,-1.692 28.85,-1.692 h 138.89 c 12.14,0 20.5,0.852 26.35,1.692 5.45,0.848 8.78,1.637 10.47,1.637 1.67,0 1.67,-2.059 1.67,-4.18 0,-10.84 -1.27,-36.348 -1.27,-40.578 0,-2.91 -1.67,-4.551 -3.33,-4.551 -1.67,0 -2.52,1.219 -2.94,6.238 l -0.42,3.762 c -1.25,10.898 -9.18,18.84 -44.34,19.68 l -46,0.851 V 176.922" /><path
         id="path106"
         style="fill:#a18e6a;fill-opacity:1;fill-rule:nonzero;stroke:none"
         d="m 8892.23,209.57 c 0,-2.121 0.82,-3.34 2.51,-4.609 5.42,-2.961 24.26,-5.449 40.56,-5.449 8.78,0 18.83,0.429 27.62,6.297 12.53,8.363 22.16,27.203 22.16,54.339 0,44.383 -24.25,69.891 -63.57,69.891 -10.9,0 -22.59,-1.269 -26.37,-2.117 -1.67,-0.852 -2.91,-2.063 -2.91,-4.184 z m -31.79,30.102 c 0,55.226 0,65.226 -0.85,76.558 -0.82,12.11 -2.91,17.989 -15.05,19.629 -2.94,0.422 -9.21,0.84 -12.54,0.84 -1.27,0 -2.94,1.699 -2.94,2.973 0,2.058 1.67,2.91 5.85,2.91 16.75,0 41.42,-0.852 43.51,-0.852 3.75,0 34.71,0.852 46,0.852 23.44,0 49.36,-2.121 68.62,-15.512 9.18,-6.66 25.5,-23.808 25.5,-48.519 0,-26.34 -10.87,-51.84 -45.18,-81.102 30.13,-37.66 55.63,-69.89 76.98,-92.058 19.66,-20.0512 31.79,-23.4418 40.97,-24.6527 7.12,-1.2695 10.9,-1.2695 12.99,-1.2695 2.09,0 3.34,-1.6993 3.34,-2.9102 0,-2.1172 -2.09,-2.9688 -8.79,-2.9688 h -23 c -20.9,0 -30.11,2.1211 -39.32,7.1485 -15.9,8.3633 -29.28,25.4997 -50.21,52.2737 -15.47,19.258 -31.76,42.218 -39.73,51.847 -1.66,1.692 -2.51,2.11 -5,2.11 l -46.85,0.851 c -1.69,0 -2.51,-0.851 -2.51,-2.961 V 176.5 c 0,-34.281 0,-61.898 1.66,-76.5586 1.25,-10.4219 3.34,-17.1406 14.63,-18.7812 5.03,-0.8516 12.99,-1.6914 16.33,-1.6914 2.51,0 2.93,-1.6993 2.93,-2.9102 0,-1.6992 -1.66,-2.9688 -5.87,-2.9688 -20.08,0 -43.49,1.2696 -45.16,1.2696 -0.42,0 -25.09,-1.2696 -36.39,-1.2696 -3.76,0 -5.85,0.8516 -5.85,2.9688 0,1.2109 0.82,2.9102 2.91,2.9102 3.36,0 7.97,0.8398 11.3,1.6914 7.12,1.6406 7.96,8.3593 9.63,18.7812 2.09,14.6606 2.09,42.6996 2.09,76.9806 v 62.75" /><path
         id="path108"
         style="fill:#a18e6a;fill-opacity:1;fill-rule:nonzero;stroke:none"
         d="m 9141.79,239.672 c 0,55.226 0,65.226 -0.85,76.558 -0.82,12.11 -2.91,17.989 -15.05,19.629 -2.94,0.422 -9.2,0.84 -12.53,0.84 -1.27,0 -2.94,1.699 -2.94,2.973 0,2.058 1.67,2.91 5.85,2.91 16.73,0 40.57,-0.852 42.66,-0.852 2.51,0 79.49,-0.421 87.85,0 7.12,0.418 13.81,1.692 16.72,2.122 1.69,0.418 3.36,1.64 5.03,1.64 1.27,0 1.66,-1.64 1.66,-3.344 0,-2.476 -2.09,-6.656 -2.91,-16.718 -0.42,-3.328 -1.27,-19.258 -2.09,-23.442 -0.42,-1.687 -1.69,-3.75 -3.36,-3.75 -2.09,0 -2.93,1.692 -2.93,4.602 0,2.488 -0.4,8.359 -2.09,12.539 -2.52,5.871 -6.27,8.359 -26.35,10.902 -6.27,0.789 -48.94,1.219 -53.12,1.219 -1.66,0 -2.09,-1.219 -2.09,-3.762 v -96.609 c 0,-2.539 0,-3.75 2.09,-3.75 4.61,0 53.12,0 61.48,0.84 8.81,0.801 14.23,1.222 17.99,4.98 2.51,2.543 4.2,4.602 5.45,4.602 1.24,0 2.09,-0.789 2.09,-2.91 0,-2.121 -2.09,-7.942 -2.94,-19.68 -0.82,-7.09 -1.67,-20.481 -1.67,-22.973 0,-2.957 -0.84,-6.718 -3.33,-6.718 -1.69,0 -2.51,1.269 -2.51,3.339 0,3.379 0,7.141 -1.7,11.743 -1.24,5.027 -4.57,9.207 -18.81,10.847 -10.04,1.27 -49.35,1.692 -55.62,1.692 -2.09,0 -2.52,-1.27 -2.52,-2.539 v -29.68 c 0,-12.121 -0.42,-53.543 0,-60.633 0.85,-23.8593 7.54,-28.4609 43.92,-28.4609 9.62,0 27.19,0 36.82,3.75 9.6,4.1836 14.63,10.4809 16.72,24.7109 0.84,4.18 1.69,5.402 3.78,5.402 2.09,0 2.49,-2.91 2.49,-5.402 0,-2.539 -2.91,-26.7695 -5,-34.3398 -2.52,-9.1992 -6.3,-9.1992 -20.51,-9.1992 -27.61,0 -48.93,0.8398 -63.98,1.2695 -15.51,0.8399 -25.11,0.8399 -30.56,0.8399 -0.82,0 -7.94,0 -15.9,-0.418 -7.09,-0.4219 -15.48,-0.8516 -21.32,-0.8516 -3.76,0 -5.85,0.8516 -5.85,2.9688 0,1.2109 0.83,2.9102 2.92,2.9102 3.35,0 7.95,1.2695 11.29,1.6914 7.11,1.2187 7.96,8.3593 9.63,18.7812 2.09,14.6606 2.09,42.6996 2.09,76.9806 v 62.75" /></g></g></svg>